<svg version="1.1" id="layer" xmlns="http://www.w3.org/2000/svg" x="0" y="0" viewBox="0 0 600 89.9" xml:space="preserve"><style>.st2{fill:#f0562c}</style><path d="M591.4 33.8c.2-.5.6-1 1-1.4s.9-.7 1.4-.9c.5-.2 1.1-.3 1.7-.3.6 0 1.2.1 1.7.3.5.2 1 .5 1.4.9s.7.9 1 1.4c.2.5.4 1.1.4 1.8 0 .6-.1 1.2-.4 1.8-.2.5-.6 1-1 1.4s-.9.7-1.4.9c-.5.2-1.1.3-1.7.3-.6 0-1.2-.1-1.7-.3-.5-.2-1-.5-1.4-.9s-.7-.9-1-1.4c-.2-.5-.4-1.1-.4-1.8s.1-1.2.4-1.8m.7 3.3c.2.5.4.9.8 1.2.3.3.7.6 1.2.8.4.2.9.3 1.5.3.5 0 1-.1 1.4-.3.4-.2.8-.5 1.2-.8.3-.3.6-.7.8-1.2s.3-1 .3-1.5-.1-1-.3-1.5-.4-.9-.8-1.2c-.3-.3-.7-.6-1.2-.8-.4-.2-.9-.3-1.4-.3s-1 .1-1.5.3c-.5.2-.8.5-1.2.8-.3.3-.6.7-.8 1.2s-.3 1-.3 1.5.1 1 .3 1.5m3.7-4.1c.6 0 1.1.1 1.4.4.3.2.4.6.4 1.1s-.1.8-.4 1c-.3.2-.6.3-1 .4l1.5 2.3h-.9l-1.4-2.2h-.9v2.2h-.7V33h2zm-.4 2.3h.5c.2 0 .3 0 .4-.1.1-.1.2-.1.3-.3.1-.1.1-.3.1-.5s0-.3-.1-.4-.2-.2-.3-.2c-.1-.1-.2-.1-.4-.1h-1.5v1.7h1v-.1z" fill="#464547"/><path d="M.1 30.4l-.1.1v12.9l13.7 7.1L0 57.6v13l37 19.3h3.8l37-19.3v-13l-13.7-7.1 13.7-7.1V30.5l-.1-.1-38.8-19.9L.1 30.4z" fill="#dc2327"/><path class="st2" d="M38.9 63.7L13.7 50.5 0 57.6l38.9 20.3 38.9-20.3-13.7-7.1-25.2 13.2z"/><path class="st2" d="M0 30.5l38.9 20.3 38.9-20.3-38.9-20L0 30.5z"/><path d="M133.4 37.6h.3s-.3-3.4-.3-3.8V6.9h-8.1V0h16.5v76.6h7.7v6.9h-14.1l-1.2-7.8h-.4s-5.2 8.6-17.8 8.6c-13.8 0-24.2-9.3-24.2-27 0-17.3 11.2-26.9 24.3-26.9 13.3.1 17.3 7.2 17.3 7.2m0 31V45.1c-1.5-2.2-5.9-7.5-15.7-7.5-8.4 0-17.6 6.2-17.6 19.8 0 13.6 8.3 19.9 17.7 19.9 6.3 0 12.7-3 15.6-8.7m59 6.2s-4.6 9.5-19.9 9.5c-10.8 0-18-6.4-18-15.1 0-9.7 9.2-14.8 23.9-14.8h13.2V50c0-9-5.2-12.8-14.7-12.8-9.1 0-13.7 4.4-13.7 10.2v1.1h-7.7v-2.6c0-7.6 6.7-15.6 21.6-15.6 14.1 0 22.9 6.3 22.9 19.9v26.2h6.3v6.9h-12.5l-1-8.7h-.4v.2zm-.9-14.3h-12.7c-9.2 0-16.1 2.7-16.1 8.7 0 5.2 4.8 8.5 11.5 8.5 12.1 0 17.3-9.1 17.3-9.1v-8.1zm32.1-43.2v14h16.6V38h-16.6v28.2c0 7.4 3.3 11 8.7 11 5.8 0 9.4-1.7 9.4-1.7v7.1s-4.3 1.8-10.8 1.8c-10.1 0-15.8-5.8-15.8-17.7V38h-8v-6.7h8l1.5-14h7zm61 57.5s-4.6 9.5-19.9 9.5c-10.8 0-18-6.4-18-15.1 0-9.7 9.2-14.8 23.9-14.8h13.2V50c0-9-5.2-12.8-14.7-12.8-9.1 0-13.7 4.4-13.7 10.2v1.1h-7.7v-2.6c0-7.6 6.7-15.6 21.6-15.6 14.1 0 22.9 6.3 22.9 19.9v26.2h6.3v6.9h-12.7l-1-8.7h-.2v.2zm-.9-14.3H271c-9.2 0-16.1 2.7-16.1 8.7 0 5.2 4.8 8.5 11.5 8.5 12.1 0 17.3-9.1 17.3-9.1v-8.1zm30.1 15.2l-1.3 7.8h-6.4V6.9h-7.7V0h16.1v33.8c0 .4-.3 3.8-.3 3.8h.3s4.7-7.2 17.5-7.2c13 0 24.2 9.6 24.2 26.9 0 17.7-10.4 27-24.1 27-12.7 0-17.9-8.6-17.9-8.6h-.4zm.7-30.7v23.5c2.8 5.7 9.3 8.7 15.7 8.7 9.3 0 17.6-6.4 17.6-19.9 0-13.7-9.1-19.8-17.5-19.8-9.6 0-14.2 5.2-15.8 7.5m82.6-6c-1.2-.4-3.3-.8-5.9-.8-13 0-15.7 15.5-15.7 15.5v23h8.5v6.9h-24.7v-6.9h7.7V38.2h-7.7v-6.9h14.1l.8 13.3h.3s2.6-14.1 16.8-14.1c2.4 0 4.4.3 5.7.6V39h.1zm23.8 37.6h7.5v6.9h-23.6v-6.9h7.7V38.2h-7.7v-6.9h16.1v45.3zm-4.6-54.8c-3.6 0-6.5-2.9-6.5-6.7 0-3.6 2.9-6.5 6.5-6.5 3.7 0 6.7 2.9 6.7 6.5 0 3.8-3 6.7-6.7 6.7m23 35.6c0 13.7 8.8 19.9 18.8 19.9 12.2 0 17.1-5.7 17.1-5.7l2.9 6.1s-5.8 6.7-20.6 6.7c-15.6 0-26.6-9.6-26.6-27 0-18.2 10-26.9 26-26.9 16.4 0 22.3 9 22.3 18.7V52h-7.7v-1.7c0-7.8-4.5-12.8-14.7-12.8-10.4 0-17.5 5.3-17.5 19.9m59.4-4.3h13L524.2 38h-6.5v-6.7h23.7V38h-8.1l-15.2 18.5 16 20.4h8v6.7h-12.7L511 59.7h-12.3v16.9h7.5v7h-23.8v-7h7.9V6.9h-7.9V0h16.3v53.1zm55 13.5v1.2c0 5.4 4.5 9.6 14 9.6 9.6 0 13.9-3.1 13.9-8.3 0-5.4-6.9-7.2-14.5-8.5-9.4-1.7-19.9-4.1-19.9-15.5 0-9 8.5-14.7 20.2-14.7 15.5 0 21.2 6.4 21.2 14.3v3.8h-7.8v-2.3c0-5.6-3.7-8.9-13-8.9-6.1 0-12.2 2.5-12.2 8 0 6.2 7.4 7.3 15 8.7 9.9 1.9 19.4 4.9 19.4 15.2 0 8.4-6.3 15.1-22 15.1-16.1 0-22.1-7.2-22.1-14.6v-3.3h7.8v.2z" fill="#444545"/></svg>
