<svg data-name="Layer 1" xmlns="http://www.w3.org/2000/svg" viewBox="0 0 1317.02 1126.34"><path d="M704.41 1102.41v-107-165c0-12.54 5.87-20.6 16.48-22.94a20.59 20.59 0 0125 18.71c.38 52.33 0 104.43.13 156.8 39.65-25 78.41-51 117.86-76.31 14.2-9.2 31.44-1.59 33.21 14.63.92 8.48-2.15 15.09-9.62 19.88-27.26 17.57-54.41 35-81.48 53 28.15 31 54.1 62.65 82.82 92.79 15.85 14.59 7.05 41.07-16.09 39-6.51-1.82-11-6.22-15.39-11.17-28.89-32.73-57.91-65.13-87-97.72-6.68 6.1-25.06 11.83-24.42 20.92.22 21.8 0 43.61.14 65.41a21.77 21.77 0 01-24.3 22.59c-11.74-4.76-17.6-10.2-17.34-23.59zM1240.06 1124.36c-19.33.24-19.7-28.58-.28-28.7 19.38-.28 19.56 28.65.28 28.7zm10.74-14.2c.66-15.15-22.25-14.88-22-.19-.31 14.35 22.33 14.9 22 .19z"/><path d="M1080.68 993.63c-15.38-64.83-120.89-62.56-132.67 0zm-133.52 41.54c14.2 48.34 76.06 65.14 113.34 31.42 9.78-8.74 22.28-8.76 30.35 0 23.47 31.9-37.07 55.91-61.87 58.54-8.48 2-17.56.44-26.28.9-118-10.28-140.54-189-13.66-220.4 110.15-28.83 176.16 128.76 112.64 129.56-51.56 0-102.93-.03-154.52-.02zM1189.94 1099.81c2.28 34.46-44.56 34.7-41.94-.09V926.89c-1.77-15 13-28.47 27.63-23.16 10 3.16 14.68 12.72 14.36 23.14 31.12-23.62 66.65-29.63 103.88-19.7 13 2.79 25.3 13 22.85 27.83-3.46 8.91-8.82 16-19.23 16.2-42.59-15.64-92.52-2.83-105 44.5-5.74 34.16-1.88 69.55-2.55 104.11zM213.15 374.59c-.27-20.65 12.85-33.79 33.54-33.8 218.31-.14 436.63.22 654.94-.14 26.51-.15 52.63-5.48 76.62-17.32-42.34-68.43-12-147.23 19.06-184.66 46.35 25 76.17 62.24 85.91 114.71 44.57-5.06 95.2-6.48 131.42 24.33 2.56 2.15 1.63 3.9.92 6.06-19.55 62.92-85.37 96.86-148.45 94-4.12-.09-5.75 1.25-7.18 4.85C1006.58 529 896.12 653.04 742.93 695c-107.42 31.07-223.26 34.18-331.63 6.06-144.49-32.7-199.55-193.13-198.15-326.47zM676.97 94.37c-8 0-10.33-2.41-10.33-10.49 0-24.46.09-48.93-.09-73.39 0-4.62 1.25-8.07 5.15-10.49h94c10.24 2.68 3 69.63 5 83.91 0 8-2.37 10.45-10.37 10.46q-41.67.06-83.36 0zM531.96 1002.75c-12.09 61.66 66.33 106.92 113.28 65.37 9.79-8 23.15-7.16 30.54 1.61 24.39 37.08-55.53 59.69-82.08 56.29-129.09-9.81-140.53-197.37-13.4-221.36 27.85-8.69 107.69 9 99.86 47.36-3.91 14.08-21.19 19.11-33.28 9.65-9.85-7.72-20.37-13.69-32.8-16.16-37.85-7.56-75.5 18.62-82.12 57.24zM1245.46 1117.75l-6.26-6.37-3.48 5.95c-1.42-5-1.51-8.87-1.32-14.49 16.06-.9 9.81 2.34 11.06 14.91z"/><path d="M426.83 1014.37c-1.7-92-138.08-92-139.73 0 1.83 91.67 137.95 91.38 139.73 0zm-90.39-110c163.47-24.52 178.94 225.85 13.26 221.6-129.2-9.64-140.68-197.22-13.26-221.57z"/><path d="M181.95 925.65c.65-32.12 0-64.35.28-96.49.06-15.83 12.29-25.34 26.92-21.2a19.7 19.7 0 0114.6 18.73q.3 93.72 0 187.46c-.2 51.91-34 95.52-83.5 108.16C67.75 1143.45-8.12 1077.75.75 1003c8.37-87.25 113-129.25 181.2-77.35zm-139.47 89c1.93 91.57 138.19 90.92 139.64-.66-2.22-91.93-138.6-91.39-139.64.69zM894.38 236.96q.09 37.2 0 74.41c0 7.39-2.58 10-9.91 10q-42.19.08-84.39 0c-7.36 0-10-2.56-10-9.94q-.11-37.2 0-74.41c0-7.56 2.68-10 10.4-10h83.94c7.25 0 9.95 2.62 9.96 9.94zM770.75 123.2v74.92c0 7.2-2.69 9.82-10 9.84h-84c-7.56 0-10.13-2.62-10.14-10.23v-74.42c0-7.1 2.55-9.78 9.53-9.79q42.45-.08 84.91 0c7.06.01 9.7 2.69 9.7 9.68zM770.75 236.75v74.91c0 7-2.57 9.71-9.59 9.72q-42.45.09-84.9 0c-7 0-9.58-2.67-9.59-9.72v-74.91c0-7.2 2.65-9.71 10.09-9.72h84.4c6.91 0 9.59 2.72 9.59 9.72zM648.3 123.75q.08 36.95 0 73.91c0 7.85-2.62 10.34-10.61 10.35h-83.45c-7.53 0-10.25-2.66-10.27-10.24q-.07-37 0-73.91c0-7.72 2.57-10.29 10.16-10.3q42-.06 83.9 0c7.72-.04 10.25 2.43 10.27 10.19zM648.29 236.94q.09 37.2 0 74.4c0 7.45-2.53 10-9.86 10q-42.2.08-84.4 0c-7.36 0-10-2.59-10-9.92q-.1-37.2 0-74.4c0-7.55 2.7-10 10.4-10.05h83.94c7.23.05 9.91 2.64 9.92 9.97zM524.31 123.94v73.41c0 8.17-2.53 10.61-10.84 10.61h-82.9c-7.87 0-10.46-2.56-10.47-10.49v-73.4c0-8.28 2.38-10.55 10.85-10.57h82.9c8.05.03 10.45 2.41 10.46 10.44zM524.29 236.64q.09 37.5 0 75c0 7.11-2.58 9.71-9.65 9.72q-42.49.09-85 0c-6.81 0-9.5-2.63-9.52-9.36q-.12-37.75 0-75.5c0-6.93 2.81-9.48 9.91-9.49h84.5c7 .02 9.75 2.64 9.76 9.63zM402.18 236.9q.09 37.25 0 74.5c0 7.45-2.5 10-9.9 10q-42.26.08-84.5 0c-7.13 0-9.75-2.6-9.77-9.62q-.07-37.5 0-75c0-7 2.74-9.71 9.68-9.73h84.5c7.34-.03 9.98 2.51 9.99 9.85z"/></svg>
