<svg id="Layer_1" data-name="Layer 1" xmlns="http://www.w3.org/2000/svg" viewBox="0 0 1317.02 1126.34"><path d="M704.66,1102.66q0-53.49,0-107,0-82.47,0-165c0-12.54,5.87-20.6,16.48-22.94a20.59,20.59,0,0,1,25,18.71c.38,52.33,0,104.43.13,156.8,39.65-25,78.41-51,117.86-76.31,14.2-9.2,31.44-1.59,33.21,14.63.92,8.48-2.15,15.09-9.62,19.88-27.26,17.57-54.41,35-81.48,53,28.15,31,54.1,62.65,82.82,92.79,15.85,14.59,7.05,41.07-16.09,39-6.51-1.82-11-6.22-15.39-11.17-28.89-32.73-57.91-65.13-87-97.72-6.68,6.1-25.06,11.83-24.42,20.92.22,21.8,0,43.61.14,65.41A21.77,21.77,0,0,1,722,1126.25C710.26,1121.49,704.4,1116.05,704.66,1102.66Z" transform="translate(-0.25 -0.25)"/><path d="M1240.31,1124.61c-19.33.24-19.7-28.58-.28-28.7C1259.41,1095.63,1259.59,1124.56,1240.31,1124.61Zm10.74-14.2c.66-15.15-22.25-14.88-22-.19C1228.74,1124.57,1251.38,1125.12,1251.05,1110.41Z" transform="translate(-0.25 -0.25)"/><path d="M1080.93,993.88c-15.38-64.83-120.89-62.56-132.67,0Zm-133.52,41.54c14.2,48.34,76.06,65.14,113.34,31.42,9.78-8.74,22.28-8.76,30.35,0,23.47,31.9-37.07,55.91-61.87,58.54-8.48,2-17.56.44-26.28.9-118-10.28-140.54-189-13.66-220.4,110.15-28.83,176.16,128.76,112.64,129.56C1050.37,1035.44,999,1035.41,947.41,1035.42Z" transform="translate(-0.25 -0.25)"/><path d="M1190.19,1100.06c2.28,34.46-44.56,34.7-41.94-.09q0-86.42,0-172.83c-1.77-15,13-28.47,27.63-23.16,10,3.16,14.68,12.72,14.36,23.14,31.12-23.62,66.65-29.63,103.88-19.7,13,2.79,25.3,13,22.85,27.83-3.46,8.91-8.82,16-19.23,16.2-42.59-15.64-92.52-2.83-105,44.5C1187,1030.11,1190.86,1065.5,1190.19,1100.06Z" transform="translate(-0.25 -0.25)"/><path d="M213.4,374.84c-.27-20.65,12.85-33.79,33.54-33.8,218.31-.14,436.63.22,654.94-.14,26.51-.15,52.63-5.48,76.62-17.32-42.34-68.43-12-147.23,19.06-184.66,46.35,25,76.17,62.24,85.91,114.71,44.57-5.06,95.2-6.48,131.42,24.33,2.56,2.15,1.63,3.9.92,6.06-19.55,62.92-85.37,96.86-148.45,94-4.12-.09-5.75,1.25-7.18,4.85-53.35,146.38-163.81,270.42-317,312.38-107.42,31.07-223.26,34.18-331.63,6.06C267.06,668.61,212,508.18,213.4,374.84Z" transform="translate(-0.25 -0.25)"/><path d="M677.22,94.62c-8,0-10.33-2.41-10.33-10.49,0-24.46.09-48.93-.09-73.39,0-4.62,1.25-8.07,5.15-10.49h94c10.24,2.68,3,69.63,5,83.91,0,8-2.37,10.45-10.37,10.46Q718.91,94.68,677.22,94.62Z" transform="translate(-0.25 -0.25)"/><path d="M532.21,1003c-12.09,61.66,66.33,106.92,113.28,65.37,9.79-8,23.15-7.16,30.54,1.61,24.39,37.08-55.53,59.69-82.08,56.29-129.09-9.81-140.53-197.37-13.4-221.36,27.85-8.69,107.69,9,99.86,47.36-3.91,14.08-21.19,19.11-33.28,9.65-9.85-7.72-20.37-13.69-32.8-16.16C576.48,938.2,538.83,964.38,532.21,1003Z" transform="translate(-0.25 -0.25)"/><path d="M1245.71,1118l-6.26-6.37-3.48,5.95c-1.42-5-1.51-8.87-1.32-14.49C1250.71,1102.19,1244.46,1105.43,1245.71,1118Z" transform="translate(-0.25 -0.25)"/><path d="M427.08,1014.62c-1.7-92-138.08-92-139.73,0C289.18,1106.29,425.3,1106,427.08,1014.62Zm-90.39-110c163.47-24.52,178.94,225.85,13.26,221.6C220.75,1116.58,209.27,929,336.69,904.65Z" transform="translate(-0.25 -0.25)"/><path d="M182.2,925.9c.65-32.12,0-64.35.28-96.49.06-15.83,12.29-25.34,26.92-21.2A19.7,19.7,0,0,1,224,826.94q.3,93.72,0,187.46c-.2,51.91-34,95.52-83.5,108.16C68,1143.7-7.87,1078,1,1003.25,9.37,916,114,874,182.2,925.9Zm-139.47,89c1.93,91.57,138.19,90.92,139.64-.66C180.15,922.31,43.77,922.85,42.73,1014.93Z" transform="translate(-0.25 -0.25)"/><path d="M894.63,237.21q.09,37.2,0,74.41c0,7.39-2.58,10-9.91,10q-42.19.08-84.39,0c-7.36,0-10-2.56-10-9.94q-.11-37.2,0-74.41c0-7.56,2.68-10,10.4-10h42c14,0,28,0,41.94,0C891.92,227.27,894.62,229.89,894.63,237.21Z" transform="translate(-0.25 -0.25)"/><path d="M771,123.45q0,37.47,0,74.92c0,7.2-2.69,9.82-10,9.84q-21,0-42,0c-14,0-28,0-42,0-7.56,0-10.13-2.62-10.14-10.23q0-37.22,0-74.42c0-7.1,2.55-9.78,9.53-9.79q42.45-.08,84.91,0C768.36,113.78,771,116.46,771,123.45Z" transform="translate(-0.25 -0.25)"/><path d="M771,237q0,37.46,0,74.91c0,7-2.57,9.71-9.59,9.72q-42.45.09-84.9,0c-7,0-9.58-2.67-9.59-9.72q0-37.45,0-74.91c0-7.2,2.65-9.71,10.09-9.72,14,0,28,0,41.95,0,14.15,0,28.3,0,42.45,0C768.32,227.28,771,230,771,237Z" transform="translate(-0.25 -0.25)"/><path d="M648.55,124q.08,36.95,0,73.91c0,7.85-2.62,10.34-10.61,10.35q-20.73,0-41.45,0c-14,0-28,0-42,0-7.53,0-10.25-2.66-10.27-10.24q-.07-37,0-73.91c0-7.72,2.57-10.29,10.16-10.3q42-.06,83.9,0C646,113.77,648.53,116.24,648.55,124Z" transform="translate(-0.25 -0.25)"/><path d="M648.54,237.19q.09,37.2,0,74.4c0,7.45-2.53,10-9.86,10q-42.2.08-84.4,0c-7.36,0-10-2.59-10-9.92q-.1-37.2,0-74.4c0-7.55,2.7-10,10.4-10.05h42c14,0,28,0,41.94,0C645.85,227.27,648.53,229.86,648.54,237.19Z" transform="translate(-0.25 -0.25)"/><path d="M524.56,124.19q0,36.7,0,73.41c0,8.17-2.53,10.61-10.84,10.61q-41.45,0-82.9,0c-7.87,0-10.46-2.56-10.47-10.49q0-36.71,0-73.4c0-8.28,2.38-10.55,10.85-10.57q20.73,0,41.45,0c13.82,0,27.63,0,41.45,0C522.15,113.78,524.55,116.16,524.56,124.19Z" transform="translate(-0.25 -0.25)"/><path d="M524.54,236.89q.09,37.5,0,75c0,7.11-2.58,9.71-9.65,9.72q-42.49.09-85,0c-6.81,0-9.5-2.63-9.52-9.36q-.12-37.75,0-75.5c0-6.93,2.81-9.48,9.91-9.49q21.25,0,42.5,0,21,0,42,0C521.78,227.28,524.53,229.9,524.54,236.89Z" transform="translate(-0.25 -0.25)"/><path d="M402.43,237.15q.09,37.25,0,74.5c0,7.45-2.5,10-9.9,10q-42.26.08-84.5,0c-7.13,0-9.75-2.6-9.77-9.62q-.07-37.5,0-75c0-7,2.74-9.71,9.68-9.73,14,0,28,0,42,0q21.26,0,42.5,0C399.78,227.27,402.42,229.81,402.43,237.15Z" transform="translate(-0.25 -0.25)"/></svg>