<svg xmlns="http://www.w3.org/2000/svg" width="180.273" height="20" viewBox="0 0 180.273 20">
  <defs>
    <style>
      .cls-1, .cls-2 {
        fill: #fff;
      }

      .cls-1 {
        fill-rule: evenodd;
      }
    </style>
  </defs>
  <g id="g12" transform="translate(-26.955 143.475)">
    <path id="path26" class="cls-1" d="M15.851-100.61v-5h3.021a3.374,3.374,0,0,1,2.17.472,2.637,2.637,0,0,1,1.038,2.077,2.375,2.375,0,0,1-.849,1.887,3.422,3.422,0,0,1-2.171.566H15.851Zm0-6.229v-4.436h3.021a3.781,3.781,0,0,1,1.793.284A2.022,2.022,0,0,1,21.7-109.2a2.5,2.5,0,0,1-.85,1.793,3.668,3.668,0,0,1-2.454.566Zm3.3,7.55a4.727,4.727,0,0,0,3.209-.85,3.4,3.4,0,0,0,1.321-2.831,3.442,3.442,0,0,0-2.737-3.4,3.012,3.012,0,0,0,2.359-2.925,3.139,3.139,0,0,0-1.415-2.643,4.725,4.725,0,0,0-2.737-.661H14.247v13.307h4.907" transform="translate(12.708 -28.048)"/>
    <path id="path28" class="cls-1" d="M26.8-104.29a5.2,5.2,0,0,1,.472-2.454,2.632,2.632,0,0,1,2.266-1.416,2.769,2.769,0,0,1,2.17,1.132,5.5,5.5,0,0,1,.566,2.737,6.107,6.107,0,0,1-.472,2.548,2.521,2.521,0,0,1-2.265,1.416,2.388,2.388,0,0,1-2.171-1.227,5.724,5.724,0,0,1-.566-2.737Zm-1.7,0c0,2.548,1.321,5.191,4.247,5.191,3.02,0,4.624-2.454,4.624-5.191,0-2.548-1.415-5.1-4.34-5.1s-4.53,2.359-4.53,5.1" transform="translate(12.708 -28.332)"/>
    <path id="path30" class="cls-1" d="M37.086-104.29a5.2,5.2,0,0,1,.472-2.454,2.521,2.521,0,0,1,2.265-1.416,2.593,2.593,0,0,1,2.077,1.132,4.723,4.723,0,0,1,.661,2.737,6.107,6.107,0,0,1-.472,2.548,2.633,2.633,0,0,1-2.266,1.416,2.388,2.388,0,0,1-2.17-1.227,5.724,5.724,0,0,1-.566-2.737Zm-1.7,0c0,2.548,1.321,5.191,4.248,5.191,3.02,0,4.53-2.454,4.53-5.191,0-2.548-1.416-5.1-4.248-5.1-2.925,0-4.53,2.359-4.53,5.1" transform="translate(12.708 -28.332)"/>
    <path id="path32" class="cls-1" d="M52.374-108.254l-5.379,7.739h5.379v1.227H45.107v-1.227l5.285-7.455H45.579V-109.1h6.795v.85" transform="translate(11.956 -28.332)"/>
    <path id="path34" class="cls-2" d="M60.962-95.427h1.227v-20H60.962Z" transform="translate(11.606 -28.048)"/>
    <path id="path36" class="cls-1" d="M76.912-104.479H72.853l1.982-6.323ZM75.873-112.6H74.08L69.739-99.289h1.416l1.227-3.869h4.907l1.321,3.869h1.6L75.873-112.6" transform="translate(11.33 -28.048)"/>
    <path id="path38" class="cls-1" d="M91.446-105.235a2.94,2.94,0,0,1,2.831-3.02,2.682,2.682,0,0,1,2.643,3.02Zm5.568,3.021a2.839,2.839,0,0,1-2.643,1.887,3.1,3.1,0,0,1-2.643-1.6,4.245,4.245,0,0,1-.377-2.17h7.172c.095-2.737-1.226-5.285-4.247-5.285-2.925,0-4.53,2.454-4.53,5.191s1.51,5.1,4.436,5.1a4.488,4.488,0,0,0,4.248-2.926l-1.416-.188" transform="translate(10.851 -28.332)"/>
    <path id="path40" class="cls-1" d="M102.11-107.5h.095a3.423,3.423,0,0,1,3.02-1.887,3.124,3.124,0,0,1,2.832,1.51,6.928,6.928,0,0,1,.377,3.114v5.473h-1.51v-6.134a3.9,3.9,0,0,0-.188-1.793,2.018,2.018,0,0,0-1.7-.85,2.862,2.862,0,0,0-2.077.943,4.336,4.336,0,0,0-.754,2.643v5.191h-1.51V-109.1h1.416v1.6" transform="translate(10.594 -28.327)"/>
    <path id="path42" class="cls-1" d="M192.521-107.5h0a3.423,3.423,0,0,1,3.02-1.887,3.125,3.125,0,0,1,2.832,1.51,6.971,6.971,0,0,1,.472,3.114v5.473h-1.51v-6.134a3.981,3.981,0,0,0-.283-1.793,2.018,2.018,0,0,0-1.7-.85,2.653,2.653,0,0,0-1.981.943,3.87,3.87,0,0,0-.85,2.643v5.191h-1.51V-109.1h1.51v1.6" transform="translate(8.384 -28.327)"/>
    <path id="path44" class="cls-2" d="M117.115-95.427h1.227v-20h-1.227Z" transform="translate(10.282 -28.048)"/>
    <path id="path46" class="cls-1" d="M135.424-99.289v-6.418H129.29v6.418h-1.51V-112.6h1.51v5.662h6.134V-112.6h1.6v13.307h-1.6" transform="translate(9.908 -28.048)"/>
    <path id="path48" class="cls-1" d="M145.805-103.63a3.167,3.167,0,0,1-3.02,3.3c-1.228,0-2.171-.473-2.171-1.7,0-1.981,2.171-2.265,3.964-2.265h1.227v.661Zm-1.227-1.793a9.417,9.417,0,0,0-3.681.566,3.13,3.13,0,0,0-1.793,2.736c0,1.982,1.51,3.021,3.4,3.021a3.384,3.384,0,0,0,3.3-2.077l.188,1.887h1.51a7.849,7.849,0,0,1-.283-2.077v-3.869a4.8,4.8,0,0,0-.755-3.209,3.689,3.689,0,0,0-2.926-.943c-1.793,0-3.868.661-4.152,2.736l1.321.189c.283-1.321,1.509-1.7,2.643-1.7,1.7,0,2.454.566,2.454,2.359v.378h-1.227" transform="translate(9.644 -28.332)"/>
    <path id="path50" class="cls-1" d="M151.279-109.1v1.7a3.364,3.364,0,0,1,2.926-1.982,2.769,2.769,0,0,1,2.736,2.171,3.525,3.525,0,0,1,3.209-2.171,2.816,2.816,0,0,1,2.454,1.416,5.8,5.8,0,0,1,.472,2.831v5.852h-1.509v-5.852a4.6,4.6,0,0,0-.284-1.982,1.743,1.743,0,0,0-1.6-1.038,2.264,2.264,0,0,0-1.887,1.132,3.669,3.669,0,0,0-.566,2.454v5.285h-1.51v-6.229a3.4,3.4,0,0,0-.284-1.7,2.105,2.105,0,0,0-1.7-.944,2.8,2.8,0,0,0-1.793.944,3.868,3.868,0,0,0-.566,2.265v5.662h-1.51V-109.1h1.416" transform="translate(9.286 -28.327)"/>
    <path id="path52" class="cls-1" d="M165.812-109.1h1.51v9.814h-1.51Zm-.095-3.491h1.7v1.7h-1.7Z" transform="translate(8.384 -28.048)"/>
    <path id="path54" class="cls-2" d="M170.437-99.289h1.416V-112.6h-1.416Z" transform="translate(8.384 -28.048)"/>
    <path id="path56" class="cls-2" d="M81.725-99.289H83.14V-112.6H81.725Z" transform="translate(11.115 -28.048)"/>
    <path id="path58" class="cls-2" d="M86.255-99.289h1.416V-112.6H86.255Z" transform="translate(11.008 -28.048)"/>
    <path id="path60" class="cls-1" d="M179.5-99.761l-1.415.182c-2.171,0-2.832-1.271-2.832-3.087v-5.448h-1.7v-1.18h1.7v-2.361l1.51-.091v2.451h2.17v1.18h-2.17v5.629c0,1.09.377,1.726,1.6,1.726l1.132-.091v1.089" transform="translate(8.384 -28.048)"/>
    <path id="path62" class="cls-1" d="M181.951-104.29a5.183,5.183,0,0,1,.472-2.454,2.383,2.383,0,0,1,2.17-1.416,2.633,2.633,0,0,1,2.171,1.132,4.723,4.723,0,0,1,.661,2.737,6.107,6.107,0,0,1-.472,2.548,2.667,2.667,0,0,1-2.36,1.416,2.346,2.346,0,0,1-2.075-1.227,5.712,5.712,0,0,1-.566-2.737Zm-1.7,0c0,2.548,1.321,5.191,4.247,5.191,3.021,0,4.53-2.454,4.53-5.191,0-2.548-1.415-5.1-4.247-5.1-3.02,0-4.53,2.359-4.53,5.1" transform="translate(8.384 -28.332)"/>
  </g>
</svg>
