<svg id="图层_1" data-name="图层 1" xmlns="http://www.w3.org/2000/svg" viewBox="0 0 673.72 254.49"><defs><style>.cls-1{fill:#1a1818}.cls-2{fill:#5fb232}</style></defs><path class="cls-1" d="M140.78 222.18c0 18.5-15 32.31-33.26 32.31s-33.14-13.81-33.14-32.31 14.84-32.55 33.14-32.55 33.26 14.06 33.26 32.55m-17 .13c0-10.7-7.29-18.14-16.24-18.14s-16.25 7.44-16.25 18.14c0 10.44 7.29 17.64 16.25 17.64s16.22-7.2 16.22-17.64zM293.75 222.18c0 18.5-15 32.31-33.26 32.31s-33.13-13.81-33.13-32.31 14.84-32.55 33.13-32.55 33.26 14.06 33.26 32.55m-17 .13c0-10.7-7.29-18.14-16.24-18.14s-16.26 7.44-16.26 18.14c0 10.44 7.31 17.64 16.26 17.64s16.22-7.2 16.22-17.64zM514.34 222.18c0 18.5-15 32.31-33.26 32.31s-33.15-13.81-33.15-32.31 14.84-32.55 33.15-32.55 33.26 14.06 33.26 32.55m-17 .13c0-10.7-7.27-18.14-16.22-18.14s-16.27 7.44-16.27 18.14c0 10.44 7.3 17.64 16.27 17.64s16.18-7.2 16.18-17.64zM181.32 205.11c-9.45 0-11.65.25-15.26 4.1-3.36 3.49-4 8.53-4 13.44v30.41h-15.83v-61.87h15.14v6.13c4.25-6.39 10.61-6.24 19.95-6v13.82M554.91 205.11c-9.46 0-11.66.25-15.28 4.1-3.35 3.49-4 8.53-4 13.44v30.41H519.8v-61.87H535v6.13c4.23-6.39 10.6-6.24 19.95-6v13.82M223.08 252.92c-18.13 1.94-27.75-9-27.75-25.93v-21.74h-8.7v-14.06h8.7v-28.88h15.86v28.88h11.17v14.06h-11.17v21.86c0 8.64 4 11.89 11.89 11.39v14.42M355.21 253.06h-15.84V216.9c0-3.61-1.1-12.26-11.54-12.26-7.1 0-12 5.3-12 12.26v36.16H300v-61.87h15.14v6a20.38 20.38 0 0116-7.57c14.54 0 24.15 10.94 24.15 27.27v36.16M430.27 253.06h-16.35l-11.17-40.97-11.18 40.97h-16.45l-19.24-61.87h16.84l10.8 43.25 11.3-43.25h15.87l11.29 43.25 10.81-43.25h16.82l-19.34 61.87M575.07 235.26v17.8H559.2v-92.41h15.87v53l20.3-22.46h21.87l-23.06 24.15 24.39 37.72h-20.2L583 226.99l-7.93 8.27"/><path class="cls-1" d="M646.57 254.49c-15.75 0-27.4-8.29-29.32-21.62h16.1c2.17 5.3 8.53 7.2 13.22 7.2 6.37 0 11.18-1.9 11.18-5.53 0-3.47-2.16-4.92-13-6.59-11.07-1.69-25.84-4.68-25.84-18.51 0-9.72 8.53-19.81 26.43-19.81 14.19 0 24.76 7.69 26.79 19.34h-16.44c-1-2.88-4.43-5.16-10.33-5.16-7.33 0-10.33 2.63-10.33 4.92 0 3.23 4.57 4.32 12.26 5.52 15.38 2.52 26.43 5.89 26.43 19.34 0 12.25-11.3 20.9-27.15 20.9"/><path class="cls-2" d="M638 109a6.82 6.82 0 011.41.57l-2.47-17c-.25-1.63-1.67-2.32-3.31-2.34h-3.59c-1.63 0-3 .65-2.87 2.28l1.24 14.06L638 109M75.18 118.54l-.09 1.22a.8.8 0 00.7.82l3.38.34.2-1.07.6-2.45-4 .33a.89.89 0 00-.79.81M96.56 103.54l-6.27 17.9a4.22 4.22 0 01-.54 1.06l-.75 2.26-1.64 24.42a1.94 1.94 0 002 2.09H98a2.64 2.64 0 002.5-2l4.39-22.32-7.44-21.68a7.48 7.48 0 00-.91-1.69M352.89 95l-8.07-.21a9 9 0 01-4.48-1.58L303.06 64.7a3.84 3.84 0 01-1.22-3.92l6.82-21-42.17 9.48a5.85 5.85 0 00-3.17 1.74c-.39.6-1.35 2-2.16 3.15l-15.57 21.77a15.84 15.84 0 00-1.73 3.42c-.13.38-.24.75-.32 1.07L234 116.83a27.62 27.62 0 003.25.14l.35.07c.55.1 1 .23 1.09.42l.19-.57 10.28-29.44a2.33 2.33 0 01.41-.66c.56-.64 1.39-.63 2.11.18l3.06 3.39a14.89 14.89 0 012.49 4.25l18.65 54.28a3.76 3.76 0 003.32 2.38h11.27a2.31 2.31 0 002.33-2.5l-2.16-28.56a3.24 3.24 0 012.25-3.19l33.14-9.39a3.3 3.3 0 013.61 1.54L351 149.05a4.58 4.58 0 003.69 2.22H367a1.78 1.78 0 001.81-2.4L352.89 95M558 84.58l-9.53-.25a10.84 10.84 0 01-5.35-1.88L499 48.71a4.49 4.49 0 01-1.46-4.64l8.08-24.85-50 11.24a7 7 0 00-3.73 2c-.45.72-1.62 2.42-2.58 3.74L430.91 62a18.91 18.91 0 00-2 4.05 7.62 7.62 0 00-.37 1.27l-11.67 44-.23.87s1.95.2 3.57.45a3.6 3.6 0 011.79.63l1-2.68 12.26-34.88a2.84 2.84 0 01.48-.81 1.56 1.56 0 012.51.22l3.61 4a17.06 17.06 0 013 5l22.07 64.31a4.51 4.51 0 003.95 2.81h13.36a2.73 2.73 0 002.75-3l-2.56-33.84a3.8 3.8 0 012.65-3.78l39.28-11.11a3.88 3.88 0 014.27 1.81l26.27 47.27a5.46 5.46 0 004.39 2.61h12.41a2.1 2.1 0 002.13-2.85L558 84.58"/><path class="cls-2" d="M526.76 103.9a3.71 3.71 0 00-2.2 0l-8.33 2.37a2.06 2.06 0 00-.07.32l-2.57 41.67a2.81 2.81 0 002.83 3h10.05a3.77 3.77 0 003.55-2.92l5.47-28.58c0-.22 0-.48.07-.72l-7.29-13.6a3.4 3.4 0 00-1.51-1.55M438.9 81.7s-.63-1-1.08-1-.58.73-.58.73l-9.44 26.97-2.68 39.89a2.75 2.75 0 002.78 3h12.4a3.79 3.79 0 003.57-2.92l6.54-33.37a14.53 14.53 0 00.21-1.82l-9.54-27.78a13.51 13.51 0 00-2.18-3.7M419.63 116.43l-17-2.11-.27 9.29a5.57 5.57 0 01-.42 2l9.63-1.29a8.48 8.48 0 004.33-1.47l4.3-4c1-.94.74-2-.59-2.41M399.7 69.52l-15.9-28.1a6.08 6.08 0 00-3.72-2.61l-25.52-4.42L371 74l.95 2.27 7 3.06a4.59 4.59 0 012.5 3.52l2.34 31.8a5.54 5.54 0 002.33 3.82l10.2 6.24c1.19.72 2.17.18 2.22-1.21L400 71a1.67 1.67 0 00-.05-.31 2 2 0 00-.23-1.19m-22.24-20.16a3.27 3.27 0 113.27-3.25 3.26 3.26 0 01-3.27 3.25zM637.08 112.77l-20.84-5.37-.31 11.07a6.15 6.15 0 01-.64 2.54l12.27 1.12a7.41 7.41 0 005.15-1.73l5.08-4.79c1.19-1.13.87-2.4-.71-2.84M575.48 62.08l-20.59-49.61-.89-2.23a6.43 6.43 0 00-4.06-3.38l-31-6.79a3.37 3.37 0 00-3.84 2.2l-5.4 16.6-7.74 23.84a4.51 4.51 0 001.44 4.65l41.06 31.38a10.92 10.92 0 005.36 1.88l7 .17 23.75.57a1.8 1.8 0 001.83-2.68l-6.9-16.6M613.45 54.43l-18.81-33.27a7.27 7.27 0 00-4.41-3.11L559 12.65l20.31 49 .13.33 9.39 4.12a5.53 5.53 0 013 4.17l2.76 37.66a6.6 6.6 0 002.75 4.51l12.12 7.4c1.39.86 2.57.21 2.6-1.43l1.75-62.14c0-.14-.06-.25-.07-.38a2.3 2.3 0 00-.28-1.41m-26.54-23.22a4.36 4.36 0 114.36-4.36 4.35 4.35 0 01-4.36 4.36zM349.46 32.22a5.48 5.48 0 00-3.41-2.87l-26.18-5.73a2.86 2.86 0 00-3.24 1.86l-4.56 14-6.52 20.12a3.74 3.74 0 001.22 3.91L341.43 90a9.23 9.23 0 004.52 1.6l5.9.13 20 .48a1.51 1.51 0 001.61-2.21l-24-57.77M220 83l-13.23-23.42a5.09 5.09 0 00-3.1-2.18l-20.56-3.55 14.16 34.08.45 1.11 5 2.18a3.83 3.83 0 012.07 2.93l2 26.53a4.58 4.58 0 001.94 3.2l8.53 5.21c1 .6 1.81.15 1.85-1l1.23-43.81c0-.09-.05-.15-.05-.26a1.67 1.67 0 00-.19-1m-18.6-17.14a2.41 2.41 0 112.41-2.4 2.4 2.4 0 01-2.41 2.4zM178.11 51.89a4.56 4.56 0 00-2.85-2.39l-21.86-4.77a2.36 2.36 0 00-2.69 1.54l-9.26 28.5a3.14 3.14 0 001 3.27l28.94 22.13a7.59 7.59 0 003.77 1.31l21.67.54a1.27 1.27 0 001.29-1.9l-20-48.23M236.68 120.77l-13.54-.37-.22 7.8a5.48 5.48 0 01-.28 1.36l7.34-2.19c1-.32 3-.72 4-1.62l3.18-3a1.08 1.08 0 00-.48-2"/><path class="cls-2" d="M181.33 105.5l-6.26-.15a11.25 11.25 0 01-6-2.12l-28.97-22.1a7.07 7.07 0 01-2.35-7.53l4.89-15.06-33.79 7.61a4.77 4.77 0 00-2.63 1.39c-.34.51-1.16 1.68-1.82 2.64l-13 18.2a12.59 12.59 0 00-1.7 3.75l-7.09 28.66c-.27 1.11 3.64.46 4-.62L94.4 98a1.15 1.15 0 012.11-.41l2.55 2.83a12.19 12.19 0 012.08 3.55l15.56 45.32a3.14 3.14 0 002.79 2h9.39a1.92 1.92 0 001.94-2.09L129 125.34a2.71 2.71 0 011.87-2.66l27.67-7.82a2.74 2.74 0 013 1.27l17.83 33.3a3.85 3.85 0 003.09 1.84h10.23a1.48 1.48 0 001.5-2l-12.9-43.76M317.51 114.05l-2.13 34.72a2.38 2.38 0 002.39 2.5h8.48a3.2 3.2 0 003-2.46l4.54-23.72-7.3-13.59-9 2.55M251.89 92.94l-.38-.41-8.71 24.94-2.1 31.3a2.32 2.32 0 002.35 2.5h10.47a3.19 3.19 0 003-2.46l5.53-28.13a.36.36 0 010-.14l-8.45-24.69a11.84 11.84 0 00-1.71-2.91"/><path class="cls-2" d="M151.4 120.9l-1.73 28.28a2 2 0 002 2.09h7.08a2.67 2.67 0 002.51-2l3.59-18.81-6.2-11.57-7.24 2.05"/><path class="cls-1" d="M0 163.03h17.16v34.41h33.33v-34.41h17.15v89.55H50.49v-37.29H17.16v37.29H0v-89.55"/></svg>
