<svg xmlns="http://www.w3.org/2000/svg" version="1.0" viewBox="0 0 1701.232 324.499"><path class="ps01" d="M1679.39 248.44v-4.689h3.013c1.695 0 3.954.132 3.954 2.128 0 2.165-1.317 2.56-3.2 2.56h-3.766zm0 3.295h2.072l4.519 8.19h5.084l-5.084-8.53c2.636-.188 4.896-1.468 4.896-5.064 0-4.463-3.013-5.894-8.285-5.894h-7.532v19.488h4.33v-8.19zm21.842-1.525c0-11.449-8.85-18.095-18.829-18.095-9.98 0-18.829 6.646-18.829 18.095 0 11.448 8.85 18.113 18.83 18.113 9.979 0 18.829-6.665 18.829-18.113m-5.273 0c0 8.34-6.213 13.933-13.557 13.933v-.056c-7.343.056-13.368-5.536-13.368-13.877 0-8.342 6.025-13.915 13.368-13.915 7.344 0 13.557 5.573 13.557 13.915M1011.07 56.458l.02 205.463h58.031V56.458h-58.05zm-456.473-.282V261.92h58.54V105.696l45.36.02c15.025 0 25.72 3.746 32.969 11.466 9.17 9.772 12.917 25.551 12.917 54.397v90.342h56.713v-113.67c0-81.136-51.705-92.075-102.299-92.075h-104.2zm549.904.301v205.444h94.108c50.142 0 66.504-8.341 84.222-27.038 12.503-13.124 20.58-41.933 20.58-73.434 0-28.865-6.835-54.642-18.772-70.684-21.503-28.696-52.477-34.288-98.702-34.288H1104.5zm57.56 44.719h24.949c36.19 0 59.594 16.268 59.594 58.427 0 42.196-23.405 58.445-59.594 58.445h-24.949V101.196zM927.413 56.477l-48.428 162.815L832.57 56.477h-62.625l66.26 205.444h83.638l66.787-205.444h-59.218zm403 205.444h58.03V56.477h-58.03v205.444zm162.664-205.387l-81.022 205.312h57.222l12.823-36.284h95.802l12.239 36.284h62.136l-81.718-205.312h-77.482zm37.677 37.47l35.097 96.178h-71.362l36.265-96.179z"/><path d="M182.974 96.832V67.514c2.84-.201 5.714-.358 8.644-.447 80.171-2.516 132.758 68.89 132.758 68.89s-56.802 78.896-117.708 78.896c-8.766 0-16.627-1.42-23.694-3.79V122.18c31.208 3.768 37.48 17.555 56.243 48.83l41.73-35.189S250.488 95.87 199.143 95.87c-5.59 0-10.936.392-16.169.962m0-96.832v43.787c2.874-.235 5.759-.414 8.644-.514 111.49-3.757 184.115 91.42 184.115 91.42s-83.426 101.45-170.34 101.45c-7.96 0-15.419-.738-22.419-1.98v27.07c5.983.761 12.2 1.208 18.674 1.208 80.876 0 139.366-41.304 196.012-90.19 9.38 7.525 47.823 25.807 55.74 33.824C399.538 251.16 274.037 287.5 202.889 287.5c-6.855 0-13.452-.413-19.915-1.04v38.04h307.403V0H182.974zm0 211.062v23.102c-74.815-13.329-95.58-91.096-95.58-91.096s35.927-39.795 95.58-46.236v25.349c-.055 0-.078-.012-.123-.012-31.297-3.757-55.762 25.483-55.762 25.483s13.709 49.243 55.885 63.41m-132.87-71.36s44.335-65.423 132.87-72.188V43.787C84.912 51.647 0 134.693 0 134.693s48.092 139.042 182.974 151.766v-25.225c-98.978-12.456-132.87-121.532-132.87-121.532" fill="#77b900"/></svg>
