<svg id="Layer_1" data-name="Layer 1" xmlns="http://www.w3.org/2000/svg" viewBox="0 0 300 300"><defs><style>.cls-1{fill:#1f2555;fill-rule:evenodd}</style></defs><g id="Symbols"><g id="Logo"><g id="pega_logo_horizontal_positive_rgb" data-name="pega logo horizontal positive rgb"><path id="Fill-1" class="cls-1" d="M267.38 76.85l-.37-.18a7 7 0 00-7.7 1.58l-.43.45 6.89 3.38zm31.52 37.81s-3 5.37-4.35 7.36-5.57 3.24-9.22 1.5c-1.67-.8-17.3-9.91-23.28-9.39-30.26 2.64-38.51-9.83-39.48-11s-2.79-.61-1.49 1.62c6.64 11.39 26.28 16.67 26.28 16.67 5.14 12.38 5.76 21 5.76 21a88.49 88.49 0 00-16.41-10.08c-15.58-10.45-40-23.4-73.52-31.51 1.92-26.62 15.36-65.11 78.18-56 0 0 12.6 2.07 21 7.88 0 0-2 2.11-4.68 4.76s.29 4.34.29 4.34l13.26 10.44c.16 5.51.39 7.06 4.54 12s20.29 21.9 22.4 24.16c2.46 2.74.72 6.25.72 6.25zM154.22 62.77a88.24 88.24 0 00-1.36 35.88c-3.16-.63-6.36-1.23-9.66-1.77-68.75-11.19-89.49 22.7-81.46 50.18A459.84 459.84 0 00.5 175c27-64.72 85.63-121.68 135.12-129.16 16.16-2.14 20.71 8.35 18.6 17z"/><path id="Fill-2" d="M163.74 121.92c26.79-2.12 52.07.57 73 10.51-15.58-10.45-40-23.4-73.53-31.51a107.41 107.41 0 00.53 21zm-3.86.33c-30 2.87-65.5 12.55-98.14 24.81-8-27.48 12.71-61.37 81.46-50.18 3.3.54 6.5 1.14 9.66 1.77a108.87 108.87 0 007 23.6z" fill="#00a6a7" fill-rule="evenodd"/><path id="Fill-3" class="cls-1" d="M237.5 228.05l8.39-20.47 8.39 20.47zm2.16-37.16l-27 63.58h14.16l5.77-14.15h26.7l5.71 14.15h14.52l-27.06-63.58zm-175.2 22.44c0 5.44-4.08 9.62-11.07 9.62H42.3v-19.43h10.81c7 0 11.35 3.36 11.35 9.63zm-10.17-22.44h-26v63.58h14V235.4h10.64c14.26 0 25.71-7.64 25.71-22.35v-.18c0-12.99-9.17-21.98-24.35-21.98zM154.74 198c-6.67 6.52-10.05 14.76-10.05 24.51s3.32 17.94 9.87 24.33 14.76 9.62 24.44 9.62c11.46 0 20.42-3.47 26.64-10.31l.32-.36V216.6h-27.65v11.81h14.42v11.92a26.79 26.79 0 01-13.86 3.35 20.23 20.23 0 01-14.53-5.78c-4-3.81-6-9-6-15.35s2.08-11.56 6.16-15.44a21.42 21.42 0 0115.3-5.88 27.41 27.41 0 018.38 1.16 21 21 0 016.72 3.89l7.73-9.77c-4.08-3.59-11.42-8.32-23.65-8.32a33.63 33.63 0 00-24.24 9.81zm-52 31.06h27.38V216.6h-27.35v-13.27h34.06v-12.44h-48v63.58h48.41V242h-34.47v-13z"/></g></g></g></svg>