<svg version="1.1" id="layer" xmlns="http://www.w3.org/2000/svg" x="0" y="0" viewBox="0 0 599.8 129.72" xml:space="preserve"><style>.st0{fill:#1f2555}</style><g id="Symbols"><g id="Logo"><g id="pega_logo_horizontal_positive_rgb"><path id="Fill-1" class="st0" d="M263.2 32.72l-.4-.2s-4.3-1.9-7.6 1.6l-.4.4 6.8 3.3 1.6-5.1zm31.2 37.4s-3 5.3-4.3 7.3-5.5 3.2-9.1 1.5c-1.6-.8-17.1-9.8-23-9.3-29.9 2.6-38-9.7-39-10.8-1-1.1-2.8-.6-1.5 1.6 6.6 11.2 25.9 16.4 25.9 16.4 5.1 12.2 5.7 20.8 5.7 20.8-5-3.9-10.4-7.2-16.2-9.9-15.4-10.3-39.4-23.1-72.5-31.1 1.9-26.3 15.2-64.2 77.1-55.3 0 0 12.4 2 20.7 7.8 0 0-2 2.1-4.6 4.7s.3 4.3.3 4.3l13.1 10.3c.2 5.4.4 7 4.5 11.9s20 21.6 22.1 23.8c2.5 2.5.8 6 .8 6zm-142.8-51.2c-3.3 13.5-3 25.4-1.3 35.4-3.1-.6-6.3-1.2-9.5-1.7-67.8-11-88.3 22.4-80.4 49.5-22.4 8.4-43.5 18.1-60.4 27.6C26.6 65.82 84.5 9.62 133.3 2.32c15.9-2.3 20.4 8.1 18.3 16.6z"/><path id="Fill-2" d="M161 77.22c26.4-2.1 51.4.6 72 10.4-15.4-10.3-39.4-23.1-72.5-31.1-.7 9.2 0 16.9.5 20.7zm-3.8.4c-29.6 2.8-64.6 12.4-96.8 24.5-7.9-27.1 12.5-60.5 80.4-49.5 3.3.5 6.4 1.1 9.5 1.7 1.6 9.5 4.5 17.4 6.9 23.3z" fill="#00a6a7"/><path id="Fill-3" class="st0" d="M553.9 67.42l9.2-22.4 9.2 22.4h-18.4zm2.4-40.6l-29.7 69.6h15.5l6.3-15.5h29.2l6.3 15.5h15.9l-29.6-69.6h-13.9zm-191.9 24.5c0 6-4.5 10.5-12.1 10.5h-12.1v-21.3H352c7.7 0 12.4 3.7 12.4 10.5v.3zm-11.2-24.5h-28.4v69.6h15.3v-20.9h11.6c15.6 0 28.2-8.4 28.2-24.5v-.2c0-14.2-10-24-26.7-24zm110 7.7c-7.3 7.1-11 16.2-11 26.8 0 10.7 3.6 19.6 10.8 26.7 7.2 7 16.2 10.5 26.8 10.5 12.6 0 22.4-3.8 29.2-11.3l.4-.4v-32h-30.3v12.9h15.8v13.1c-4.1 2.4-9.2 3.7-15.2 3.7-6.2 0-11.6-2.1-15.9-6.3-4.3-4.2-6.5-9.9-6.5-16.8 0-7 2.3-12.7 6.7-16.9 4.5-4.3 10.1-6.4 16.8-6.4 3.5 0 6.6.4 9.2 1.3 2.4.8 4.9 2.2 7.4 4.3l8.5-10.7c-4.5-3.9-12.5-9.1-25.9-9.1-10.5-.1-19.5 3.5-26.8 10.6zm-56.9 34h30v-13.6h-30v-14.5h37.3v-13.6h-52.5v69.6h53v-13.6h-37.8v-14.3z"/></g></g></g></svg>
