<svg xmlns="http://www.w3.org/2000/svg" viewBox="0 0 600.1 178"><path d="M64.1 107.8c0 4-.8 7.7-2.5 11-1.7 3.4-4 6.2-7.1 8.6-3 2.4-6.6 4.2-10.8 5.5s-8.7 2-13.7 2c-5.9 0-11.2-.8-15.9-2.4s-9.4-4.3-14.1-8l7.8-12.6c3.7 3.1 7.1 5.4 10.1 6.9 3 1.4 6.1 2.2 9.2 2.2 3.9 0 7-1 9.3-3 2.3-2 3.5-4.7 3.5-8.1 0-1.4-.2-2.8-.6-4.1-.4-1.3-1.2-2.6-2.4-3.9-1.1-1.3-2.7-2.8-4.7-4.3-2-1.6-4.5-3.5-7.7-5.8-2.4-1.7-4.8-3.4-7-5.2-2.3-1.8-4.4-3.7-6.2-5.8-1.9-2.1-3.4-4.3-4.5-6.9-1.1-2.5-1.7-5.4-1.7-8.7 0-3.7.8-7.2 2.3-10.2 1.6-3.1 3.7-5.7 6.4-7.9s5.9-3.9 9.7-5.1 7.9-1.8 12.4-1.8c4.7 0 9.2.6 13.6 1.9s8.5 3.1 12.2 5.5L54.6 59c-4.8-3.4-9.9-5.1-15.2-5.1-3.3 0-5.9.8-8 2.5s-3.2 3.8-3.2 6.3c0 2.4.9 4.6 2.8 6.5 1.9 1.9 5.1 4.7 9.6 8.1 4.6 3.4 8.4 6.3 11.4 8.9 3 2.5 5.4 4.9 7.2 7.2 1.8 2.2 3 4.5 3.6 6.8 1 2.3 1.3 4.8 1.3 7.6M144.1 86.5c0-9.9-2-17.7-6-23.4-4-5.7-9.5-8.6-16.4-8.6-7.3 0-13 3-17.3 9.1S98 77.9 98 88.3c0 10.1 2.1 18.1 6.3 23.9s9.9 8.7 17.2 8.7c4.4 0 8-1.1 10.8-3.3 2.9-2.2 5.2-5.1 6.9-8.5 1.8-3.4 3-7.2 3.7-11.2.8-4.1 1.2-7.9 1.2-11.4m25.3-.9c0 7.1-1.1 13.7-3.3 19.6-2.2 6-5.2 11.2-9.1 15.6-3.9 4.5-8.5 7.9-13.8 10.4s-11.1 3.7-17.2 3.7c-2.8 0-5.4-.2-7.8-.7-2.4-.5-4.7-1.3-6.9-2.4s-4.3-2.6-6.4-4.4-4.3-4-6.6-6.7V178H75V42.3h23.2l.1 13.2c4.2-5.3 8.8-9.2 13.8-11.7s10.7-3.7 17.2-3.7c5.9 0 11.3 1.1 16.2 3.3 4.9 2.2 9.1 5.3 12.7 9.3 3.6 4 6.3 8.7 8.2 14.3 2 5.7 3 11.8 3 18.6M179.7 0h23.9v132.7h-23.9zM281.6 132.8l-.1-12.1c-4.6 5.1-9.3 8.7-14.1 11-4.8 2.2-10.5 3.3-16.9 3.3-7.1 0-13.1-1.4-18-4.2-4.9-2.8-8.4-7-10.6-12.6-.6-1.3-1.1-2.7-1.4-4.2-.3-1.5-.6-3.1-.8-5s-.4-4-.4-6.4c-.1-2.4-.1-5.4-.1-8.9V42.3h23.9V94c0 4.6.2 8.1.6 10.5s1.2 4.6 2.3 6.5c2.8 5.1 7.7 7.6 14.7 7.6 9 0 15.2-3.7 18.5-11.2.8-1.9 1.5-4.1 1.8-6.4.4-2.3.5-5.7.5-10.1V42.2h23.9v90.6h-23.8zM384.5 132.7V81c0-4.6-.2-8.1-.6-10.5s-1.2-4.6-2.3-6.5c-2.8-5.1-7.7-7.6-14.7-7.6-4.5 0-8.3.9-11.5 2.8s-5.6 4.6-7.2 8.2c-.9 2.1-1.4 4.2-1.7 6.6-.3 2.3-.5 5.6-.5 9.8v48.8h-24.1V42.2H346v12.1c4.6-5.1 9.3-8.7 14.1-11 4.8-2.2 10.5-3.4 16.9-3.4 7.1 0 13.1 1.5 18 4.4 4.9 3 8.4 7.1 10.6 12.6.5 1.3.9 2.7 1.3 4.1s.7 3 .9 4.8c.2 1.8.4 3.9.5 6.4s.1 5.5.1 9v51.3h-23.9v.2zM484.8 134.6l-35.9-50v48.1h-24.1V0h24.1v78h2.5l32-37.1 18.1 7.8-30.8 32.9 36.4 45.2z"/><path fill="#77b539" d="M527.7 130.3v-15.9l56.1-27.7-56.1-27.2V43.2l72.4 36.3v14.8z"/></svg>
