<svg xmlns="http://www.w3.org/2000/svg" width="56.603" height="49.163" viewBox="0 0 56.603 49.163">
  <defs>
    <style>
      .cls-1 {
        fill: #d4e1f4;
      }

      .cls-2 {
        fill: #761a4d;
      }

      .cls-3 {
        fill: #5b3a76;
      }
    </style>
  </defs>
  <g id="sales" transform="translate(-9.998 -42.339)">
    <g id="Group_10" data-name="Group 10" transform="translate(11.327 58.032)">
      <path id="Path_24" data-name="Path 24" class="cls-1" d="M358.778,434.774v-.157a1.325,1.325,0,0,1,1.289-1.322h-2.292a1.325,1.325,0,0,0-1.3,1.323v.157A1.325,1.325,0,0,0,357.8,436.1h2.3A1.325,1.325,0,0,1,358.778,434.774Z" transform="translate(-317.944 -404.008)"/>
      <path id="Path_25" data-name="Path 25" class="cls-1" d="M478.517,433.3h0Z" transform="translate(-425.922 -404.013)"/>
      <path id="Path_26" data-name="Path 26" class="cls-1" d="M478.519,396.932h0Z" transform="translate(-425.922 -371.829)"/>
      <path id="Path_27" data-name="Path 27" class="cls-1" d="M478.492,421.284h0Z" transform="translate(-425.922 -393.38)"/>
      <path id="Path_28" data-name="Path 28" class="cls-1" d="M358.778,398.412v-.157a1.325,1.325,0,0,1,1.288-1.322h-2.291a1.325,1.325,0,0,0-1.3,1.323v.157a1.325,1.325,0,0,0,1.3,1.323h2.292A1.325,1.325,0,0,1,358.778,398.412Z" transform="translate(-317.944 -371.829)"/>
      <path id="Path_29" data-name="Path 29" class="cls-1" d="M478.517,360.568h0Z" transform="translate(-425.922 -339.649)"/>
      <path id="Path_30" data-name="Path 30" class="cls-1" d="M358.778,362.052V361.9a1.325,1.325,0,0,1,1.289-1.322h-2.292a1.325,1.325,0,0,0-1.3,1.323v.157a1.325,1.325,0,0,0,1.3,1.323h2.291A1.325,1.325,0,0,1,358.778,362.052Z" transform="translate(-317.944 -339.653)"/>
      <path id="Path_31" data-name="Path 31" class="cls-1" d="M478.492,384.92h0Z" transform="translate(-425.922 -361.199)"/>
      <path id="Path_32" data-name="Path 32" class="cls-1" d="M478.519,324.2h0Z" transform="translate(-425.922 -307.465)"/>
      <path id="Path_33" data-name="Path 33" class="cls-1" d="M478.492,348.557h0Z" transform="translate(-425.922 -329.02)"/>
      <path id="Path_34" data-name="Path 34" class="cls-1" d="M358.778,325.684v-.157a1.325,1.325,0,0,1,1.288-1.322h-2.291a1.325,1.325,0,0,0-1.3,1.323v.157a1.325,1.325,0,0,0,1.3,1.323h2.292A1.325,1.325,0,0,1,358.778,325.684Z" transform="translate(-317.944 -307.469)"/>
      <path id="Path_35" data-name="Path 35" class="cls-1" d="M478.519,287.841h0Z" transform="translate(-425.922 -275.289)"/>
      <path id="Path_36" data-name="Path 36" class="cls-1" d="M478.492,312.192h0Z" transform="translate(-425.922 -296.839)"/>
      <path id="Path_37" data-name="Path 37" class="cls-1" d="M358.778,289.319v-.157a1.325,1.325,0,0,1,1.288-1.322h-2.291a1.325,1.325,0,0,0-1.3,1.323v.157a1.325,1.325,0,0,0,1.3,1.323h2.291A1.324,1.324,0,0,1,358.778,289.319Z" transform="translate(-317.944 -275.287)"/>
      <path id="Path_38" data-name="Path 38" class="cls-1" d="M478.492,275.829h0Z" transform="translate(-425.922 -264.659)"/>
      <path id="Path_39" data-name="Path 39" class="cls-1" d="M478.519,251.477h0Z" transform="translate(-425.922 -243.109)"/>
      <path id="Path_40" data-name="Path 40" class="cls-1" d="M358.778,252.957V252.8a1.325,1.325,0,0,1,1.288-1.322h-2.291a1.325,1.325,0,0,0-1.3,1.323v.157a1.325,1.325,0,0,0,1.3,1.323h2.291A1.325,1.325,0,0,1,358.778,252.957Z" transform="translate(-317.944 -243.109)"/>
      <path id="Path_41" data-name="Path 41" class="cls-1" d="M478.518,215.114h0Z" transform="translate(-425.922 -210.929)"/>
      <path id="Path_42" data-name="Path 42" class="cls-1" d="M478.492,239.465h0Z" transform="translate(-425.922 -232.479)"/>
      <path id="Path_43" data-name="Path 43" class="cls-1" d="M358.778,216.6v-.157a1.325,1.325,0,0,1,1.289-1.322h-2.291a1.325,1.325,0,0,0-1.3,1.323v.157a1.325,1.325,0,0,0,1.3,1.323h2.291A1.324,1.324,0,0,1,358.778,216.6Z" transform="translate(-317.944 -210.933)"/>
      <path id="Path_44" data-name="Path 44" class="cls-1" d="M358.778,180.219v-.157a1.325,1.325,0,0,1,1.324-1.324h-2.3a1.325,1.325,0,0,0-1.324,1.324v.157a1.325,1.325,0,0,0,1.3,1.323h2.292A1.325,1.325,0,0,1,358.778,180.219Z" transform="translate(-317.944 -178.738)"/>
      <path id="Path_45" data-name="Path 45" class="cls-1" d="M478.492,203.1h0Z" transform="translate(-425.922 -200.297)"/>
      <path id="Path_46" data-name="Path 46" class="cls-1" d="M232.045,323.436a7.691,7.691,0,0,1,.8,2.8h2.3a7.691,7.691,0,0,0-.8-2.8Z" transform="translate(-207.828 -306.789)"/>
      <path id="Path_47" data-name="Path 47" class="cls-1" d="M235.009,359.932l0-.032h-2.3l0,.032c0,.026-.005.053-.008.079a7.655,7.655,0,0,1-.8,2.694h2.3a7.655,7.655,0,0,0,.8-2.694C235,359.985,235.007,359.958,235.009,359.932Z" transform="translate(-207.7 -339.058)"/>
      <path id="Path_48" data-name="Path 48" class="cls-1" d="M198.405,396.365h-2.3a7.684,7.684,0,0,1-3.625,2.475,1.4,1.4,0,0,0,.906.33h2.3a1.4,1.4,0,0,1-.906-.33A7.684,7.684,0,0,0,198.405,396.365Z" transform="translate(-172.815 -371.328)"/>
      <path id="Path_49" data-name="Path 49" class="cls-1" d="M190.466,434.765v-.157a1.325,1.325,0,0,1,1.324-1.324h-2.3a1.325,1.325,0,0,0-1.324,1.324v.157a1.326,1.326,0,0,0,1.324,1.324h2.3a1.326,1.326,0,0,1-1.324-1.324Z" transform="translate(-168.996 -403.999)"/>
      <path id="Path_50" data-name="Path 50" class="cls-1" d="M190.466,252.073v-.157a1.325,1.325,0,0,1,1.324-1.324h-2.3a1.325,1.325,0,0,0-1.324,1.324v.157a1.326,1.326,0,0,0,1.324,1.324h2.3a1.326,1.326,0,0,1-1.324-1.324Z" transform="translate(-168.996 -242.325)"/>
      <path id="Path_51" data-name="Path 51" class="cls-1" d="M195.073,287.276a1.4,1.4,0,0,1,.873-.3h-2.3a1.4,1.4,0,0,0-.872.3,7.778,7.778,0,0,1,3.62,2.5h2.3A7.779,7.779,0,0,0,195.073,287.276Z" transform="translate(-173.073 -274.519)"/>
      <path id="Path_52" data-name="Path 52" class="cls-1" d="M24.3,361.3a1.4,1.4,0,0,1,1.4-1.4H23.4a1.4,1.4,0,1,0,0,2.805h2.3A1.4,1.4,0,0,1,24.3,361.3Z" transform="translate(-21.947 -339.058)"/>
      <path id="Path_53" data-name="Path 53" class="cls-1" d="M23.855,397.772a1.409,1.409,0,0,1,1.408-1.408H22.953a1.407,1.407,0,0,0-.3,2.782c.073-.006.147-.01.222-.01h2.05a1.409,1.409,0,0,1-1.07-1.365Z" transform="translate(-21.546 -371.327)"/>
      <path id="Path_54" data-name="Path 54" class="cls-1" d="M145.942,420.473l.035-.01" transform="translate(-131.631 -392.653)"/>
      <path id="Path_55" data-name="Path 55" class="cls-1" d="M24.087,433.681v-.159a1.345,1.345,0,0,1,1.012-1.3l-2.252-.02a1.346,1.346,0,0,0-1.1,1.321v.159a1.346,1.346,0,0,0,1.345,1.344h2.337A1.346,1.346,0,0,1,24.087,433.681Z" transform="translate(-21.726 -403.04)"/>
    </g>
    <path id="Path_56" data-name="Path 56" class="cls-2" d="M151.184,312.108h-.029a1.308,1.308,0,0,1-1.292-1.306.69.69,0,1,0-1.381,0,2.692,2.692,0,0,0,2,2.6v.588a.69.69,0,0,0,1.381,0V313.4a2.687,2.687,0,0,0-.69-5.284,1.307,1.307,0,1,1,1.306-1.307.69.69,0,0,0,1.381,0,2.692,2.692,0,0,0-2-2.6v-.5a.69.69,0,0,0-1.381,0v.5a2.687,2.687,0,0,0,.69,5.284,1.306,1.306,0,1,1,.014,2.613Z" transform="translate(-122.552 -230.693)"/>
    <path id="Path_57" data-name="Path 57" class="cls-3" d="M362.6,169.6v-.157a2.708,2.708,0,0,0-2.7-2.7H347.181a2.708,2.708,0,0,0-2.7,2.7v.157a2.7,2.7,0,0,0,.9,2.013,2.7,2.7,0,0,0-.9,2.013v.157a2.7,2.7,0,0,0,.9,2.013,2.7,2.7,0,0,0-.9,2.013v.157a2.7,2.7,0,0,0,.9,2.013,2.7,2.7,0,0,0-.9,2.013v.156a2.7,2.7,0,0,0,.9,2.013,2.7,2.7,0,0,0-.9,2.013v.157a2.7,2.7,0,0,0,.9,2.013,2.7,2.7,0,0,0-.9,2.013v.157a2.7,2.7,0,0,0,.9,2.013,2.7,2.7,0,0,0-.9,2.013v.157a2.7,2.7,0,0,0,.9,2.013,2.7,2.7,0,0,0-.9,2.013v.157a2.708,2.708,0,0,0,2.7,2.7h12.714a2.708,2.708,0,0,0,2.7-2.7v-.157a2.7,2.7,0,0,0-.9-2.014,2.7,2.7,0,0,0,.9-2.013v-.157a2.7,2.7,0,0,0-.9-2.013,2.7,2.7,0,0,0,.9-2.013v-.157a2.7,2.7,0,0,0-.9-2.013,2.7,2.7,0,0,0,.9-2.013v-.157a2.7,2.7,0,0,0-.9-2.014,2.7,2.7,0,0,0,.9-2.013v-.157a2.7,2.7,0,0,0-.9-2.013,2.7,2.7,0,0,0,.9-2.013v-.157a2.7,2.7,0,0,0-.9-2.013,2.7,2.7,0,0,0,.9-2.013v-.157a2.7,2.7,0,0,0-.9-2.013A2.7,2.7,0,0,0,362.6,169.6Zm-1.381,29.285a1.326,1.326,0,0,1-1.324,1.324H347.181a1.325,1.325,0,0,1-1.324-1.324v-.157a1.325,1.325,0,0,1,1.3-1.323H359.92a1.325,1.325,0,0,1,1.3,1.323Zm0-4.183a1.325,1.325,0,0,1-1.3,1.323H347.156a1.325,1.325,0,0,1-1.3-1.323v-.157a1.325,1.325,0,0,1,1.3-1.323h12.767a1.325,1.325,0,0,1,1.3,1.323Zm0-4.184a1.325,1.325,0,0,1-1.3,1.323H347.155a1.325,1.325,0,0,1-1.3-1.323v-.157a1.325,1.325,0,0,1,1.3-1.323H359.92a1.325,1.325,0,0,1,1.3,1.323Zm0-4.184a1.325,1.325,0,0,1-1.3,1.323H347.156a1.325,1.325,0,0,1-1.3-1.323v-.157a1.325,1.325,0,0,1,1.3-1.323h12.767a1.325,1.325,0,0,1,1.3,1.323Zm0-4.183a1.325,1.325,0,0,1-1.3,1.323H347.155a1.325,1.325,0,0,1-1.3-1.323v-.157a1.325,1.325,0,0,1,1.3-1.323h12.767a1.325,1.325,0,0,1,1.3,1.323Zm0-4.184a1.325,1.325,0,0,1-1.3,1.323H347.155a1.325,1.325,0,0,1-1.3-1.323v-.157a1.325,1.325,0,0,1,1.3-1.323h12.767a1.325,1.325,0,0,1,1.3,1.323Zm0-4.183a1.325,1.325,0,0,1-1.3,1.323H347.155a1.325,1.325,0,0,1-1.3-1.323v-.157a1.325,1.325,0,0,1,1.3-1.323h12.765a1.325,1.325,0,0,1,1.3,1.323Zm0-4.184a1.325,1.325,0,0,1-1.3,1.323H347.156a1.325,1.325,0,0,1-1.3-1.323v-.157a1.325,1.325,0,0,1,1.324-1.324h12.713a1.326,1.326,0,0,1,1.324,1.324Z" transform="translate(-295.998 -110.087)"/>
    <path id="Path_58" data-name="Path 58" class="cls-2" d="M53.947,66.09a.687.687,0,0,0,.4-.13L73.94,51.891l6.491,7.683a.69.69,0,0,0,.949.1L97.539,47.214l2.2,2.533a.69.69,0,0,0,1.209-.4l.408-5.856a.69.69,0,0,0-.641-.736l-5.856-.408a.69.69,0,0,0-.569,1.142l2.338,2.688L81.06,58.179l-6.477-7.666a.69.69,0,0,0-.93-.115L53.544,64.839a.69.69,0,0,0,.4,1.251ZM99.934,44.078l-.244,3.5-3.261-3.749Z" transform="translate(-38.281)"/>
    <path id="Path_59" data-name="Path 59" class="cls-3" d="M47.238,241.451v-.157a2.708,2.708,0,0,0-2.7-2.7H31.82a2.708,2.708,0,0,0-2.7,2.7v.157a2.7,2.7,0,0,0,.927,2.036,2.794,2.794,0,0,0-.531.642,7.739,7.739,0,0,0-8.616,7.036H12.781a2.781,2.781,0,0,0-1.826,4.881,2.778,2.778,0,0,0-.054,4.147,2.7,2.7,0,0,0-.9,2.014v.157a2.708,2.708,0,0,0,2.7,2.7H25.416a2.708,2.708,0,0,0,2.7-2.7v-.157a2.7,2.7,0,0,0-.9-2.013,2.784,2.784,0,0,0,.529-.662,7.59,7.59,0,0,0,1.737,0,2.77,2.77,0,0,0,.588.716,2.7,2.7,0,0,0-.958,2.063v.157a2.708,2.708,0,0,0,2.7,2.7H44.533a2.708,2.708,0,0,0,2.7-2.7v-.157a2.7,2.7,0,0,0-.963-2.067,2.777,2.777,0,0,0,.006-4.2,2.777,2.777,0,0,0,0-4.2,2.777,2.777,0,0,0,0-4.2,2.778,2.778,0,0,0,.03-4.169,2.7,2.7,0,0,0,.927-2.035ZM12.781,252.546H20.9a7.69,7.69,0,0,0,.815,2.8H12.781a1.4,1.4,0,1,1,0-2.805Zm0,4.2h9.842a7.778,7.778,0,0,0,3.623,2.469,1.4,1.4,0,0,1-.608.3H12.482a1.4,1.4,0,0,1,.3-2.772Zm13.959,5.624a1.325,1.325,0,0,1-1.324,1.324H12.7a1.325,1.325,0,0,1-1.324-1.324v-.157a1.326,1.326,0,0,1,1.08-1.3h13.2a1.325,1.325,0,0,1,1.085,1.3Zm1.878-4.163a6.373,6.373,0,1,1,6.373-6.373A6.373,6.373,0,0,1,28.618,258.2Zm17.239,4.267a1.325,1.325,0,0,1-1.324,1.324H31.82A1.326,1.326,0,0,1,30.5,262.47v-.157a1.325,1.325,0,0,1,1.324-1.324H44.533a1.325,1.325,0,0,1,1.324,1.324Zm-1.4-2.923H31.9a1.4,1.4,0,0,1-.912-.335,7.779,7.779,0,0,0,3.626-2.47h9.843a1.4,1.4,0,1,1,0,2.805Zm0-4.2H35.522a7.688,7.688,0,0,0,.815-2.8h8.118a1.4,1.4,0,1,1,0,2.805Zm0-4.2H36.34a7.691,7.691,0,0,0-.8-2.8h8.911a1.4,1.4,0,0,1,0,2.8Zm0-4.2H34.646a7.779,7.779,0,0,0-3.62-2.5,1.4,1.4,0,0,1,.873-.3H44.455a1.4,1.4,0,1,1,0,2.805Zm1.4-5.51a1.325,1.325,0,0,1-1.324,1.324H31.82a1.326,1.326,0,0,1-1.324-1.324v-.157a1.325,1.325,0,0,1,1.324-1.324H44.533a1.325,1.325,0,0,1,1.324,1.324Z" transform="translate(0 -173.673)"/>
  </g>
</svg>
