<svg xmlns="http://www.w3.org/2000/svg" width="47.316" height="47.255" viewBox="0 0 47.316 47.255">
  <defs>
    <style>
      .cls-1 {
        fill: #d4e1f4;
      }

      .cls-2 {
        fill: #761a4d;
      }

      .cls-3 {
        fill: #5b3a76;
      }
    </style>
  </defs>
  <g id="people" transform="translate(-10 -10.32)">
    <g id="Group_12" data-name="Group 12" transform="translate(11.154 11.474)">
      <path id="Path_81" data-name="Path 81" class="cls-1" d="M63.262,357.639v-1.723a2.009,2.009,0,0,1,1.526-1.946,2,2,0,0,0-2.488,1.946v1.723a2,2,0,0,0,2.488,1.946A2.009,2.009,0,0,1,63.262,357.639Z" transform="translate(-58.424 -322.02)"/>
      <path id="Path_82" data-name="Path 82" class="cls-1" d="M88.7,449.8a1.8,1.8,0,0,0,1.688-1.187l.019-.052h-.363a1.34,1.34,0,0,1-.549-.137l-.068.19a1.8,1.8,0,0,1-1.207,1.12A1.784,1.784,0,0,0,88.7,449.8Z" transform="translate(-81.852 -407.448)"/>
      <path id="Path_83" data-name="Path 83" class="cls-1" d="M25.4,449.863h-.962A2.44,2.44,0,0,0,22,452.3v1.392h.962V452.3A2.44,2.44,0,0,1,25.4,449.863Z" transform="translate(-22 -408.746)"/>
      <path id="Path_84" data-name="Path 84" class="cls-1" d="M236.095,357.639v-1.723a2.009,2.009,0,0,1,1.526-1.946,2,2,0,0,0-2.488,1.946v1.723a2,2,0,0,0,2.488,1.946A2.009,2.009,0,0,1,236.095,357.639Z" transform="translate(-214.636 -322.02)"/>
      <path id="Path_85" data-name="Path 85" class="cls-1" d="M261.537,449.8a1.8,1.8,0,0,0,1.688-1.187l.019-.052h-.363a1.34,1.34,0,0,1-.549-.137l-.068.19a1.8,1.8,0,0,1-1.207,1.12A1.784,1.784,0,0,0,261.537,449.8Z" transform="translate(-238.065 -407.448)"/>
      <path id="Path_86" data-name="Path 86" class="cls-1" d="M198.233,449.863h-.962a2.44,2.44,0,0,0-2.437,2.438v1.392h.962V452.3A2.44,2.44,0,0,1,198.233,449.863Z" transform="translate(-178.212 -408.746)"/>
      <path id="Path_87" data-name="Path 87" class="cls-1" d="M408.926,357.639v-1.723a2.009,2.009,0,0,1,1.526-1.946,2,2,0,0,0-2.488,1.946v1.723a2,2,0,0,0,2.488,1.946A2.009,2.009,0,0,1,408.926,357.639Z" transform="translate(-370.846 -322.02)"/>
      <path id="Path_88" data-name="Path 88" class="cls-1" d="M434.368,449.8a1.8,1.8,0,0,0,1.688-1.187l.019-.052h-.363a1.341,1.341,0,0,1-.549-.137l-.068.19a1.8,1.8,0,0,1-1.207,1.12A1.784,1.784,0,0,0,434.368,449.8Z" transform="translate(-394.275 -407.448)"/>
      <path id="Path_89" data-name="Path 89" class="cls-1" d="M371.064,449.863H370.1a2.44,2.44,0,0,0-2.437,2.438v1.392h.962V452.3A2.44,2.44,0,0,1,371.064,449.863Z" transform="translate(-334.422 -408.746)"/>
      <path id="Path_90" data-name="Path 90" class="cls-1" d="M228.9,27.281V25.066a2.75,2.75,0,0,1,2.024-2.648,2.744,2.744,0,0,0-3.466,2.648v2.215a2.744,2.744,0,0,0,3.466,2.648,2.75,2.75,0,0,1-2.024-2.648Z" transform="translate(-207.697 -22.321)"/>
      <path id="Path_91" data-name="Path 91" class="cls-1" d="M180.385,133.354h-1.443a3.3,3.3,0,0,0-3.3,3.3v5.513h1.443v-5.513A3.3,3.3,0,0,1,180.385,133.354Z" transform="translate(-160.868 -122.676)"/>
    </g>
    <path id="Path_92" data-name="Path 92" class="cls-2" d="M176.955,115.111h-1.4a.416.416,0,0,1-.325-.156.932.932,0,0,0-.543-.348l-.206-.04a.872.872,0,0,0-.782.239l-.3.3h-1.717l-.349-.393a.81.81,0,0,0-.9-.217l-.148.058a.875.875,0,0,0-.414.358.417.417,0,0,1-.352.193H168.1a4.453,4.453,0,0,0-4.453,4.453v6.09a.577.577,0,0,0,.577.577h16.61a.577.577,0,0,0,.577-.577v-6.091A4.453,4.453,0,0,0,176.955,115.111Zm-4.13,1.154-.174.507H172.4l-.174-.507Zm-.25,1.748.741,4.262-.8.936-.774-.927Zm7.679,7.064H164.8v-5.513a3.3,3.3,0,0,1,3.3-3.3h1.42a1.566,1.566,0,0,0,1.172-.529l.221.249.574,1.591-.93,4.757a.577.577,0,0,0,.124.481l1.388,1.661a.577.577,0,0,0,.439.207h0a.577.577,0,0,0,.438-.2l1.422-1.661a.577.577,0,0,0,.13-.474l-.855-4.914.49-1.429.256-.256a1.566,1.566,0,0,0,1.112.518h1.452a3.3,3.3,0,0,1,3.3,3.3Z" transform="translate(-138.868 -94.113)"/>
    <path id="Path_93" data-name="Path 93" class="cls-2" d="M219.355,20.333a3.9,3.9,0,0,0,3.9-3.9V14.219a3.9,3.9,0,1,0-7.8,0v2.215A3.9,3.9,0,0,0,219.355,20.333Zm-2.745-6.114a2.745,2.745,0,1,1,5.49,0v2.215a2.745,2.745,0,1,1-5.49,0Z" transform="translate(-185.697)"/>
    <path id="Path_94" data-name="Path 94" class="cls-2" d="M285.122,165.914h2.132a.577.577,0,0,0,0-1.154h-2.132a.577.577,0,0,0,0,1.154Z" transform="translate(-248.142 -139.587)"/>
    <path id="Path_95" data-name="Path 95" class="cls-2" d="M109.141,250.163a1.27,1.27,0,0,1,1.269,1.268v2.426a.577.577,0,1,0,1.154,0v-2.426a2.425,2.425,0,0,0-2.423-2.423h-14.2v-1.246a.577.577,0,1,0-1.154,0v1.246H79.59a2.425,2.425,0,0,0-2.423,2.423v2.426a.577.577,0,1,0,1.154,0v-2.426a1.27,1.27,0,0,1,1.269-1.268h14.2v4.007a.577.577,0,0,0,1.154,0v-4.007Z" transform="translate(-60.707 -214.086)"/>
    <path id="Path_96" data-name="Path 96" class="cls-3" d="M53.462,349.953a3.164,3.164,0,0,0,3.161-3.161V345.07a3.161,3.161,0,0,0-6.322,0v1.723A3.164,3.164,0,0,0,53.462,349.953Zm-2.007-4.884a2.007,2.007,0,0,1,4.014,0v1.723a2.007,2.007,0,1,1-4.014,0Z" transform="translate(-36.425 -299.7)"/>
    <path id="Path_97" data-name="Path 97" class="cls-3" d="M20.482,435.276H19.393a.2.2,0,0,1-.126-.046.924.924,0,0,0-.454-.209.912.912,0,0,0-1,.593l-.165.46a.656.656,0,0,1-.46.424.64.64,0,0,1-.752-.414l-.163-.475a.905.905,0,0,0-1.3-.492.608.608,0,0,0-.14.1.2.2,0,0,1-.138.058h-1.1A3.591,3.591,0,0,0,10,438.868v1.969a.577.577,0,0,0,.577.577H23.5a.577.577,0,0,0,.577-.577v-1.969a3.592,3.592,0,0,0-3.592-3.592Zm2.437,4.983H11.154v-1.392a2.44,2.44,0,0,1,2.437-2.438h1.1a1.342,1.342,0,0,0,.593-.138l.058.168a1.793,1.793,0,0,0,3.383.021l.068-.19a1.341,1.341,0,0,0,.549.137h1.134a2.44,2.44,0,0,1,2.437,2.438Z" transform="translate(0 -383.839)"/>
    <path id="Path_98" data-name="Path 98" class="cls-3" d="M226.294,349.953a3.164,3.164,0,0,0,3.161-3.161V345.07a3.161,3.161,0,0,0-6.322,0v1.723A3.164,3.164,0,0,0,226.294,349.953Zm-2.007-4.884a2.007,2.007,0,0,1,4.014,0v1.723a2.007,2.007,0,1,1-4.014,0Z" transform="translate(-192.636 -299.7)"/>
    <path id="Path_99" data-name="Path 99" class="cls-3" d="M193.314,435.276h-1.089a.2.2,0,0,1-.126-.046.924.924,0,0,0-.453-.209.912.912,0,0,0-1,.593l-.165.46a.656.656,0,0,1-.46.424.64.64,0,0,1-.752-.414l-.163-.475a.905.905,0,0,0-1.3-.492.61.61,0,0,0-.14.1.2.2,0,0,1-.138.058h-1.1a3.591,3.591,0,0,0-3.592,3.591v1.969a.577.577,0,0,0,.577.577h12.919a.577.577,0,0,0,.577-.577v-1.969a3.592,3.592,0,0,0-3.592-3.592Zm2.438,4.983H183.986v-1.392a2.44,2.44,0,0,1,2.437-2.438h1.1a1.342,1.342,0,0,0,.593-.138l.058.168a1.793,1.793,0,0,0,3.383.021l.068-.19a1.341,1.341,0,0,0,.549.137h1.134a2.44,2.44,0,0,1,2.437,2.438Z" transform="translate(-156.211 -383.839)"/>
    <path id="Path_100" data-name="Path 100" class="cls-3" d="M399.127,349.953a3.164,3.164,0,0,0,3.161-3.161V345.07a3.161,3.161,0,0,0-6.322,0v1.723A3.164,3.164,0,0,0,399.127,349.953Zm-2.007-4.884a2.007,2.007,0,0,1,4.014,0v1.723a2.007,2.007,0,1,1-4.013,0Z" transform="translate(-348.847 -299.7)"/>
    <path id="Path_101" data-name="Path 101" class="cls-3" d="M366.147,435.276h-1.089a.2.2,0,0,1-.126-.046.924.924,0,0,0-.454-.209.912.912,0,0,0-1,.593l-.165.46a.656.656,0,0,1-.46.424.64.64,0,0,1-.752-.414l-.164-.475a.905.905,0,0,0-1.3-.492.608.608,0,0,0-.14.1.2.2,0,0,1-.138.058h-1.1a3.591,3.591,0,0,0-3.591,3.591v1.969a.577.577,0,0,0,.577.577h12.919a.577.577,0,0,0,.577-.577v-1.969a3.592,3.592,0,0,0-3.592-3.592Zm2.438,4.983H356.819v-1.392a2.44,2.44,0,0,1,2.437-2.438h1.105a1.342,1.342,0,0,0,.593-.138l.058.168a1.793,1.793,0,0,0,3.383.021l.068-.19a1.342,1.342,0,0,0,.549.137h1.134a2.44,2.44,0,0,1,2.437,2.438Z" transform="translate(-312.422 -383.839)"/>
  </g>
</svg>
