<svg xmlns="http://www.w3.org/2000/svg" width="47.029" height="48.005" viewBox="0 0 47.029 48.005">
  <defs>
    <style>
      .cls-1 {
        fill: #d4e1f4;
      }

      .cls-2 {
        fill: #5b3a76;
      }

      .cls-3 {
        fill: #761a4d;
      }
    </style>
  </defs>
  <g id="project-plan" transform="translate(-15 -10)">
    <path id="Path_72" data-name="Path 72" class="cls-1" d="M196.1,202.536a5.962,5.962,0,0,1,5.064-5.837,6.173,6.173,0,0,0-.976-.078,5.917,5.917,0,1,0,0,11.831,6.172,6.172,0,0,0,.976-.078A5.964,5.964,0,0,1,196.1,202.536Z" transform="translate(-161.668 -168.412)"/>
    <g id="Group_11" data-name="Group 11" transform="translate(15 10)">
      <path id="Path_73" data-name="Path 73" class="cls-2" d="M362.723,40.694h6.92a2.9,2.9,0,0,0,2.921-2.877V27.911a3.4,3.4,0,1,0-1.171.027v9.879a1.73,1.73,0,0,1-1.75,1.706h-6.92a.585.585,0,1,0,0,1.171Zm6.954-16.061A2.225,2.225,0,1,1,371.9,26.8,2.2,2.2,0,0,1,369.678,24.633Z" transform="translate(-328.267 -20.189)"/>
      <path id="Path_74" data-name="Path 74" class="cls-2" d="M21.79,24.633a3.4,3.4,0,1,0-3.98,3.291v9.892a2.9,2.9,0,0,0,2.921,2.877h6.852a.585.585,0,1,0,0-1.171H20.73a1.73,1.73,0,0,1-1.75-1.706V27.925A3.362,3.362,0,0,0,21.79,24.633Zm-5.619,0A2.225,2.225,0,1,1,18.395,26.8a2.2,2.2,0,0,1-2.224-2.171Z" transform="translate(-15 -20.189)"/>
      <path id="Path_75" data-name="Path 75" class="cls-2" d="M358.785,304.308h7.3a1.731,1.731,0,0,1,1.75,1.706v9.879a3.395,3.395,0,1,0,1.171.027v-9.906a2.9,2.9,0,0,0-2.921-2.877h-7.3a.585.585,0,1,0,0,1.171Zm11.787,14.89a2.225,2.225,0,1,1-2.224-2.171A2.2,2.2,0,0,1,370.572,319.2Z" transform="translate(-324.713 -274.535)"/>
      <path id="Path_76" data-name="Path 76" class="cls-2" d="M18.395,322.541a3.338,3.338,0,0,0,.585-6.634v-9.893a1.731,1.731,0,0,1,1.75-1.706h7.237a.585.585,0,0,0,0-1.171H20.73a2.9,2.9,0,0,0-2.921,2.877v9.893a3.338,3.338,0,0,0,.585,6.634Zm0-5.514a2.172,2.172,0,1,1-2.224,2.171A2.2,2.2,0,0,1,18.395,317.027Z" transform="translate(-15 -274.535)"/>
      <path id="Path_77" data-name="Path 77" class="cls-2" d="M226.23,10a3.337,3.337,0,0,0-.74,6.6v3.831a.585.585,0,0,0,1.171,0V16.657A3.339,3.339,0,0,0,226.23,10Zm0,5.514a2.172,2.172,0,1,1,2.224-2.171A2.2,2.2,0,0,1,226.23,15.514Z" transform="translate(-202.556 -10)"/>
      <path id="Path_78" data-name="Path 78" class="cls-2" d="M225.235,396.044v-3.52a.585.585,0,0,0-1.171,0v3.52a3.4,3.4,0,1,0,1.171,0Zm-.585,5.463a2.172,2.172,0,1,1,2.224-2.171A2.2,2.2,0,0,1,224.65,401.507Z" transform="translate(-201.13 -354.673)"/>
    </g>
    <path id="Path_79" data-name="Path 79" class="cls-3" d="M189.36,184.618a7.088,7.088,0,1,0,7.211,7.087A7.157,7.157,0,0,0,189.36,184.618Zm0,13a5.917,5.917,0,1,1,6.04-5.916A5.985,5.985,0,0,1,189.36,197.62Z" transform="translate(-150.84 -157.58)"/>
    <path id="Path_80" data-name="Path 80" class="cls-3" d="M135.15,122.625h-1.681a11.856,11.856,0,0,0-1.641-3.9L133,117.57a.822.822,0,0,0,0-1.174l-2.581-2.533a.836.836,0,0,0-1.165,0l-1.183,1.161a12.318,12.318,0,0,0-4-1.63v-1.622a.828.828,0,0,0-.829-.825H119.6a.828.828,0,0,0-.829.825v1.622a12.316,12.316,0,0,0-4,1.63l-1.183-1.161a.836.836,0,0,0-1.165,0l-2.581,2.533a.822.822,0,0,0,0,1.174l1.175,1.153a11.856,11.856,0,0,0-1.641,3.9H107.7a.828.828,0,0,0-.829.825v3.582a.828.828,0,0,0,.829.825h1.69a11.859,11.859,0,0,0,1.647,3.888l-1.19,1.167a.822.822,0,0,0,0,1.174l2.581,2.533a.836.836,0,0,0,1.165,0l1.206-1.184a12.317,12.317,0,0,0,3.972,1.615v1.66a.828.828,0,0,0,.829.825h3.65a.828.828,0,0,0,.829-.825V137.05a12.314,12.314,0,0,0,3.972-1.615l1.207,1.184a.836.836,0,0,0,1.165,0L133,134.086a.822.822,0,0,0,0-1.174l-1.19-1.168a11.86,11.86,0,0,0,1.647-3.888h1.69a.828.828,0,0,0,.829-.825V123.45a.828.828,0,0,0-.829-.825Zm-.341,4.061h-1.625a.831.831,0,0,0-.812.664,10.711,10.711,0,0,1-1.686,3.974.821.821,0,0,0,.1,1.053l1.143,1.122-2.09,2.051-1.163-1.142a.836.836,0,0,0-1.04-.1,11.168,11.168,0,0,1-4.055,1.647.827.827,0,0,0-.673.809v1.6H119.94v-1.6a.828.828,0,0,0-.673-.809,11.164,11.164,0,0,1-4.055-1.647.837.837,0,0,0-1.041.1l-1.163,1.142-2.09-2.051,1.143-1.122a.821.821,0,0,0,.1-1.052,10.711,10.711,0,0,1-1.686-3.974.83.83,0,0,0-.812-.664h-1.625V123.8h1.617a.829.829,0,0,0,.813-.667,10.712,10.712,0,0,1,1.678-3.988.821.821,0,0,0-.1-1.051l-1.128-1.107,2.091-2.051,1.14,1.118a.836.836,0,0,0,1.042.1,11.165,11.165,0,0,1,4.077-1.661.827.827,0,0,0,.673-.809v-1.561h2.967v1.561a.827.827,0,0,0,.673.809,11.165,11.165,0,0,1,4.077,1.661.836.836,0,0,0,1.042-.1l1.14-1.118,2.09,2.051-1.128,1.107a.821.821,0,0,0-.1,1.051,10.708,10.708,0,0,1,1.678,3.988.829.829,0,0,0,.813.667h1.618Z" transform="translate(-82.904 -91.097)"/>
  </g>
</svg>
