<svg xmlns="http://www.w3.org/2000/svg" width="37.5" height="47.551" viewBox="0 0 37.5 47.551">
  <defs>
    <style>
      .cls-1 {
        fill: #d4e1f4;
      }

      .cls-2 {
        fill: #0635c9;
      }

      .cls-3 {
        fill: #01807e;
      }
    </style>
  </defs>
  <g id="mind" transform="translate(-71.446 -21.999)">
    <path id="Path_60" data-name="Path 60" class="cls-1" d="M106.81,94.584,105.051,87.6a.705.705,0,0,0-.69-.531h0c-.265,0-6.495.017-6.918.03a3.117,3.117,0,0,1-3.2-3.084v-5.6a.669.669,0,0,0-.673-.7H88.537a.053.053,0,0,1-.038-.027.047.047,0,0,1-.005-.046l3.272-8.57a.719.719,0,0,0,.047-.253c0-1.241.012-3.288.026-3.5a16.249,16.249,0,0,1,5.121-11.006q.332-.312.678-.6a16.365,16.365,0,0,0-8.848,13.64c-.013.216-.023,2.264-.026,3.5a.719.719,0,0,1-.047.253l-3.272,8.57a.047.047,0,0,0,.005.046.052.052,0,0,0,.038.027h5.026a.669.669,0,0,1,.673.7v5.6a3.117,3.117,0,0,0,3.2,3.084c.423-.013,6.653-.03,6.918-.03h0a.705.705,0,0,1,.69.531l1.759,6.988h14.415c-.123-.5-.286-1.2-.466-2.032Z" transform="translate(-12.573 -28.488)"/>
    <path id="Path_61" data-name="Path 61" class="cls-2" d="M107.068,46.148a16.532,16.532,0,0,0-.393-16.016,16.214,16.214,0,0,0-13.488-8.121Q92.959,22,92.73,22A17.758,17.758,0,0,0,74.8,38.779c-.018.3-.026,2.7-.028,3.452l-3.225,8.447a1.479,1.479,0,0,0,1.373,2.006h4.276v4.872a4.533,4.533,0,0,0,4.662,4.5c.3-.009,4-.026,6.327-.035l1.761,6.992a.714.714,0,0,0,.692.538h15.881a.711.711,0,0,0,.687-.894c-.027-.1-2.658-10.073-2.075-16.329A35.13,35.13,0,0,1,107.068,46.148ZM104.542,63.1c.387,2.157.81,4,1.062,5.03H91.189L89.43,61.14a.705.705,0,0,0-.69-.531h0c-.265,0-6.495.017-6.918.03a3.116,3.116,0,0,1-3.2-3.084v-5.6a.669.669,0,0,0-.673-.7H72.916a.053.053,0,0,1-.038-.027.047.047,0,0,1-.005-.046l3.272-8.57a.719.719,0,0,0,.047-.253c0-1.241.012-3.288.026-3.5A16.335,16.335,0,0,1,92.529,23.422h.185q.212,0,.422.01a14.57,14.57,0,0,1,7.286,2.207,15.208,15.208,0,0,1,5.368,19.882c-.01.02-.02.041-.029.062a36,36,0,0,0-2.051,6.611A42.543,42.543,0,0,0,104.542,63.1Z" transform="translate(0 0)"/>
    <path id="Path_62" data-name="Path 62" class="cls-3" d="M261.422,59.485V56.017a.711.711,0,1,0-1.422,0v3.468a.711.711,0,0,0,1.422,0Z" transform="translate(-169.396 -29.923)"/>
    <path id="Path_63" data-name="Path 63" class="cls-3" d="M209.564,80.551a.711.711,0,0,0,.616-1.066l-1.34-2.329a.711.711,0,1,0-1.233.709l1.34,2.329A.711.711,0,0,0,209.564,80.551Z" transform="translate(-122.241 -49.231)"/>
    <path id="Path_64" data-name="Path 64" class="cls-3" d="M172.165,117.88l-2.321-1.345a.711.711,0,1,0-.713,1.231l2.321,1.345a.711.711,0,1,0,.713-1.231Z" transform="translate(-87.441 -84.845)"/>
    <path id="Path_65" data-name="Path 65" class="cls-3" d="M305.691,76.894a.711.711,0,0,0-.971.262l-1.34,2.329a.711.711,0,1,0,1.233.709l1.34-2.33A.711.711,0,0,0,305.691,76.894Z" transform="translate(-208.283 -49.232)"/>
    <path id="Path_66" data-name="Path 66" class="cls-3" d="M333.455,119.21a.708.708,0,0,0,.356-.1l2.321-1.345a.711.711,0,1,0-.713-1.231l-2.321,1.345a.711.711,0,0,0,.357,1.327Z" transform="translate(-234.748 -84.847)"/>
    <path id="Path_67" data-name="Path 67" class="cls-3" d="M337.166,172h-3.455a.711.711,0,1,0,0,1.422h3.455a.711.711,0,1,0,0-1.422Z" transform="translate(-234.979 -134.76)"/>
    <path id="Path_68" data-name="Path 68" class="cls-3" d="M158.166,172h-3.455a.711.711,0,1,0,0,1.422h3.455a.711.711,0,1,0,0-1.422Z" transform="translate(-74.166 -134.76)"/>
    <path id="Path_69" data-name="Path 69" class="cls-3" d="M217.588,111.516A5.6,5.6,0,0,0,212,117.123c0,2.192,1.052,3.371,2.27,4.735l.246.276a1.817,1.817,0,0,1,.592,1.74.684.684,0,0,0,.036.674.711.711,0,0,0,.616.327h3.658a.714.714,0,0,0,.648-1.008c0-.007-.279-.747.6-1.733l.246-.276c1.218-1.365,2.27-2.544,2.27-4.735A5.6,5.6,0,0,0,217.588,111.516Zm2.257,9.395c-.082.091-.165.187-.249.282a3.7,3.7,0,0,0-.995,2.26h-2.026a3.7,3.7,0,0,0-.995-2.26l-.249-.281c-1.149-1.288-1.909-2.139-1.909-3.789a4.166,4.166,0,0,1,8.332,0C221.754,118.772,220.995,119.622,219.845,120.911Z" transform="translate(-126.273 -80.421)"/>
    <path id="Path_70" data-name="Path 70" class="cls-3" d="M247.166,245h-3.455a.711.711,0,0,0,0,1.422h3.455a.711.711,0,1,0,0-1.422Z" transform="translate(-154.123 -200.343)"/>
    <path id="Path_71" data-name="Path 71" class="cls-3" d="M251.048,261h-2.337a.711.711,0,0,0,0,1.422h2.337a.711.711,0,0,0,0-1.422Z" transform="translate(-158.615 -214.717)"/>
  </g>
</svg>
