<svg xmlns="http://www.w3.org/2000/svg" width="40.849" height="49.963" viewBox="0 0 40.849 49.963">
  <defs>
    <style>
      .cls-1 {
        fill: #d4e1f4;
      }

      .cls-2 {
        fill: #761a4d;
      }

      .cls-3 {
        fill: #5b3a76;
      }
    </style>
  </defs>
  <g id="partnership-handshake" transform="translate(-53.494 -10.271)">
    <g id="Group_9" data-name="Group 9" transform="translate(54.54 29.497)">
      <path id="Path_7" data-name="Path 7" class="cls-1" d="M114.083,369.981a1.221,1.221,0,0,1-.277-1.7l2.763-3.836a1.211,1.211,0,0,1,.482-.394,1.22,1.22,0,0,0-1.5.394l-2.763,3.836a1.22,1.22,0,0,0,1.5,1.822A1.229,1.229,0,0,1,114.083,369.981Z" transform="translate(-107.586 -347.133)"/>
      <path id="Path_8" data-name="Path 8" class="cls-1" d="M143.265,400.3a1.221,1.221,0,0,1-.276-1.7l2-2.781a1.21,1.21,0,0,1,.482-.394,1.22,1.22,0,0,0-1.5.394l-2,2.781a1.22,1.22,0,0,0,1.5,1.822A1.24,1.24,0,0,1,143.265,400.3Z" transform="translate(-133.796 -375.31)"/>
      <path id="Path_9" data-name="Path 9" class="cls-1" d="M172.438,428.936a1.222,1.222,0,0,1-.277-1.7l1.382-1.918a1.212,1.212,0,0,1,.482-.394,1.222,1.222,0,0,0-1.5.394l-1.382,1.918a1.22,1.22,0,0,0,1.5,1.822A1.222,1.222,0,0,1,172.438,428.936Z" transform="translate(-159.996 -401.805)"/>
      <path id="Path_10" data-name="Path 10" class="cls-1" d="M201.624,457.56a1.222,1.222,0,0,1-.277-1.7l.76-1.055a1.213,1.213,0,0,1,.482-.4,1.221,1.221,0,0,0-1.5.4l-.76,1.055a1.22,1.22,0,0,0,1.5,1.822A1.226,1.226,0,0,1,201.624,457.56Z" transform="translate(-186.21 -428.287)"/>
      <path id="Path_11" data-name="Path 11" class="cls-1" d="M65.831,218.27l7.4-14.106-1.3-.792a.263.263,0,0,0-.138-.039.274.274,0,0,0-.073.01.266.266,0,0,0-.166.134L63.793,218.27a.267.267,0,0,0,.106.358l3.155,1.743.552-.785-1.67-.958A.267.267,0,0,1,65.831,218.27Z" transform="translate(-63.762 -202.892)"/>
      <path id="Path_12" data-name="Path 12" class="cls-1" d="M117.24,342.1l-.611,1.324,1.3,1.087.284-.394a2.427,2.427,0,0,1,.7-.652Z" transform="translate(-111.243 -327.522)"/>
      <path id="Path_13" data-name="Path 13" class="cls-1" d="M152.826,358.169l-.018-.015-1.31-1.047a2.443,2.443,0,0,0-2.361-2.967,2.44,2.44,0,0,0-2.351-3,2.44,2.44,0,0,0-2.267-3,2.443,2.443,0,0,0-4.3-2.185l-.226.313a2.442,2.442,0,0,1,3.512,2.89,2.44,2.44,0,0,1,2.267,3,2.44,2.44,0,0,1,2.351,3,2.445,2.445,0,0,1,2.36,2.967l1.31,1.047.018.015a1.4,1.4,0,0,0,2.27-.722,1.4,1.4,0,0,1-1.251-.3Z" transform="translate(-132.224 -330.069)"/>
      <path id="Path_14" data-name="Path 14" class="cls-1" d="M181.987,237.493c.168-.512.357-1.024.561-1.522l.844-2.056a3.185,3.185,0,0,1,1.977-1.8l2.769-.876a3.179,3.179,0,0,1,1.826-.03l2.869.806a9.458,9.458,0,0,0,4.335.086l-.7-1.413-.835.4a.61.61,0,0,1-.112.035,6.894,6.894,0,0,1-3.706-.13l-2.869-.806a3.179,3.179,0,0,0-1.826.03l-2.769.876a3.185,3.185,0,0,0-1.977,1.8l-.844,2.056c-.2.5-.393,1.011-.561,1.522l-.666,2.034c-.3.634,1.025,1.131,1.311.127Z" transform="translate(-168.391 -226.905)"/>
      <path id="Path_15" data-name="Path 15" class="cls-1" d="M342.055,201.37a.269.269,0,0,1,.144-.365l2.066-.809-.433-1.2-3.365,1.293a.269.269,0,0,0-.144.364l7.126,15.266,1.235-.458Z" transform="translate(-312.127 -199)"/>
    </g>
    <path id="Path_16" data-name="Path 16" class="cls-2" d="M177.685,149.638H170.6a.611.611,0,1,0,0,1.222h7.082a.611.611,0,1,0,0-1.222Z" transform="translate(-104.63 -125.17)"/>
    <path id="Path_17" data-name="Path 17" class="cls-2" d="M293.127,210.9a.611.611,0,0,0,0,1.222h1.928a.611.611,0,0,0,0-1.222Z" transform="translate(-214.673 -180.191)"/>
    <path id="Path_18" data-name="Path 18" class="cls-2" d="M178.3,186.765a.611.611,0,0,0-.611-.611H170.6a.611.611,0,1,0,0,1.222h7.082a.611.611,0,0,0,.611-.611Z" transform="translate(-104.63 -157.966)"/>
    <path id="Path_19" data-name="Path 19" class="cls-2" d="M162.237,19.731h-8.608V17.179a.611.611,0,0,0-.611-.611h-1.275V13.5a.611.611,0,0,0-.611-.611H147.34v-2.01a.611.611,0,0,0-1.222,0v2.01h-4.606a.611.611,0,0,0-.611.611v3.064h-1.276a.611.611,0,0,0-.611.611V29.536h1.222V17.79h12.171V32.519h1.222V20.953h8v8.582h1.222V20.342A.611.611,0,0,0,162.237,19.731ZM150.52,16.568h-8.4V14.114h8.4Z" transform="translate(-76.807)"/>
    <path id="Path_20" data-name="Path 20" class="cls-2" d="M298.3,175.726a.611.611,0,0,0-.611-.611h-4.566a.611.611,0,1,0,0,1.222h4.566A.611.611,0,0,0,298.3,175.726Z" transform="translate(-214.673 -148.051)"/>
    <path id="Path_21" data-name="Path 21" class="cls-2" d="M297.693,139.335h-4.566a.611.611,0,1,0,0,1.222h4.566a.611.611,0,0,0,0-1.222Z" transform="translate(-214.673 -115.916)"/>
    <path id="Path_22" data-name="Path 22" class="cls-2" d="M177.685,113.121H170.6a.611.611,0,1,0,0,1.222h7.082a.611.611,0,1,0,0-1.222Z" transform="translate(-104.63 -92.373)"/>
    <path id="Path_23" data-name="Path 23" class="cls-3" d="M94.208,204.31,87.265,189.5a1.429,1.429,0,0,0-1.814-.722l-3.063,1.207a1.426,1.426,0,0,0-.767,1.936l.405.859-.24.1a5.806,5.806,0,0,1-3.116-.126l-2.913-.819a4.461,4.461,0,0,0-2.559.041l-2.813.89a4.464,4.464,0,0,0-1.553.863,6.154,6.154,0,0,0-2.567-.226l.357-.681a1.429,1.429,0,0,0-.521-1.881l-2.813-1.711a1.426,1.426,0,0,0-2.006.558l-7.624,14.6a1.42,1.42,0,0,0,.564,1.9l2.831,1.6a1.416,1.416,0,0,0,.7.185,1.435,1.435,0,0,0,.406-.059,1.415,1.415,0,0,0,.859-.7l.407-.775,1.2,1-1.8,2.495a2.472,2.472,0,0,0,.56,3.446l0,0a2.452,2.452,0,0,0,1.438.466,2.5,2.5,0,0,0,.4-.033c.054-.009.108-.02.161-.032.005.054.012.109.02.163a2.449,2.449,0,0,0,.988,1.6l0,0,.006,0a2.451,2.451,0,0,0,1.438.466,2.5,2.5,0,0,0,.4-.032c.055-.009.108-.02.162-.032.005.054.012.109.02.163a2.455,2.455,0,0,0,1,1.609l0,0a2.455,2.455,0,0,0,1.439.464,2.492,2.492,0,0,0,.56-.064c.005.055.012.109.02.164a2.455,2.455,0,0,0,1,1.609l0,0a2.451,2.451,0,0,0,1.436.465,2.5,2.5,0,0,0,.4-.032,2.453,2.453,0,0,0,1.608-.994l.622-.864,1.122.9a2.632,2.632,0,0,0,1.72.637c.066,0,.131,0,.2-.007a2.649,2.649,0,0,0,2.451-2.47,2.634,2.634,0,0,0,.916.163q.1,0,.2-.007a2.652,2.652,0,0,0,2.453-2.47,2.651,2.651,0,0,0,3.557-2.226,2.624,2.624,0,0,0,1.118.249c.067,0,.134,0,.2-.008a2.651,2.651,0,0,0,1.819-.918l.034-.039a2.592,2.592,0,0,0-.268-3.656l-.761-.657a5.791,5.791,0,0,0,1.381-1.229,1.419,1.419,0,0,0,1.275.8,1.433,1.433,0,0,0,.57-.119l2.983-1.292a1.426,1.426,0,0,0,.724-1.914Zm-36.274,2.428a.2.2,0,0,1-.28.083l-2.831-1.6a.2.2,0,0,1-.081-.272l7.624-14.6a.2.2,0,0,1,.126-.1.207.207,0,0,1,.055-.008.2.2,0,0,1,.105.03l2.813,1.711a.2.2,0,0,1,.074.269Zm3.913,5.465a1.246,1.246,0,0,1-1.74.283l0,0a1.248,1.248,0,0,1-.283-1.74l2.809-3.9a1.249,1.249,0,0,1,2.027,1.461Zm3.019,2.175a1.248,1.248,0,0,1-1.738.284l-.006,0a1.247,1.247,0,0,1-.283-1.741l2.039-2.83A1.249,1.249,0,0,1,66.9,211.55Zm3.019,2.175a1.248,1.248,0,0,1-1.74.283l0,0a1.247,1.247,0,0,1-.283-1.74l1.407-1.953a1.239,1.239,0,0,1,.811-.5,1.267,1.267,0,0,1,.2-.016,1.249,1.249,0,0,1,1.013,1.979Zm3.794,1.1-.775,1.076a1.247,1.247,0,0,1-1.74.283l0,0a1.247,1.247,0,0,1-.283-1.74l.775-1.076a1.239,1.239,0,0,1,.811-.5,1.271,1.271,0,0,1,.2-.016,1.229,1.229,0,0,1,.72.231l.01.007a1.247,1.247,0,0,1,.283,1.74Zm16.029-7.068a1.361,1.361,0,0,1-.329,1l-.034.039a1.435,1.435,0,0,1-.985.5,1.419,1.419,0,0,1-1.038-.343l-1.087-.939-.008-.008-2.889-2.5a.611.611,0,1,0-.8.925l2.895,2.5a1.429,1.429,0,1,1-1.874,2.158l-2.889-2.5a.611.611,0,1,0-.8.925l1.992,1.722a1.429,1.429,0,0,1-1.869,2.163L76,214.508a.611.611,0,1,0-.8.925l1.1.947a1.429,1.429,0,1,1-1.868,2.163l-.018-.015-1.335-1.066a2.472,2.472,0,0,0-.962-2.537l-.01-.007a2.451,2.451,0,0,0-1.425-.466,2.475,2.475,0,0,0-2.388-3.051,2.473,2.473,0,0,0-2.3-3.048,2.472,2.472,0,0,0-4.351-2.224l-.3.411L60,205.424l5.539-10.546a5.593,5.593,0,0,1,2.4-.115,4.527,4.527,0,0,0-.331.637l-.859,2.094c-.219.535-.421,1.083-.6,1.63l-.858,2.618a.611.611,0,0,0,.332.749l.185.082a4.313,4.313,0,0,0,4.166-.32,4.239,4.239,0,0,0,1.883-3.13q.007-.068.012-.137c.038-.183.327-1.423,1.168-1.5l1.225.345a2.883,2.883,0,0,1,1.241.723l7.671,7.584.031.028,4.03,3.479a1.361,1.361,0,0,1,.471.936Zm-1.413-3.365-2.274-1.963-7.656-7.569a4.107,4.107,0,0,0-1.769-1.03l-1.318-.372a.585.585,0,0,0-.168-.023,2.3,2.3,0,0,0-2.024,1.339,4.246,4.246,0,0,0-.424,1.2l-.019.2a3.021,3.021,0,0,1-1.344,2.229,3.12,3.12,0,0,1-2.667.345l.68-2.075c.17-.52.362-1.04.57-1.547l.857-2.088a3.245,3.245,0,0,1,2.014-1.835l2.812-.89a3.241,3.241,0,0,1,1.86-.03l2.913.819a6.994,6.994,0,0,0,3.76.132.61.61,0,0,0,.112-.035l.337-.144,5.51,11.683a4.569,4.569,0,0,1-1.762,1.65Zm6.813-2.232a.2.2,0,0,1-.11.115l-2.982,1.292a.2.2,0,0,1-.265-.1l-.4-.841a.613.613,0,0,0-.122-.258L82.726,191.4a.2.2,0,0,1,.11-.276l3.064-1.207a.2.2,0,0,1,.259.1L93.1,204.829a.2.2,0,0,1,.006.159Z" transform="translate(0 -160.235)"/>
  </g>
</svg>
